<?xml version="1.0" encoding="utf-8"?>
<!-- Generator: Adobe Illustrator 13.0.0, SVG Export Plug-In . SVG Version: 6.00 Build 14948)  -->
<!DOCTYPE svg PUBLIC "-//W3C//DTD SVG 1.1//EN" "http://www.w3.org/Graphics/SVG/1.1/DTD/svg11.dtd">
<svg version="1.1" id="Calque_1" xmlns="http://www.w3.org/2000/svg" xmlns:xlink="http://www.w3.org/1999/xlink" x="0px" y="0px"
	 width="500px" height="500px" viewBox="0 0 500 500" enable-background="new 0 0 500 500" xml:space="preserve">
<g id="Calque_1_1_">
	<g>
		<g>
			<defs>
				<path id="SVGID_1_" d="M183.536,137.224l54.99,232.3c0,0,3.278,9.519,9.519,9.519c6.241,0.001,10.575-7.402,10.575-7.402
					l56.754-251.688L183.536,137.224z"/>
			</defs>
			<clipPath id="SVGID_2_">
				<use xlink:href="#SVGID_1_"  overflow="visible"/>
			</clipPath>
			<rect x="95.113" y="95.886" clip-path="url(#SVGID_2_)" fill="#FCC781" width="308.228" height="308.229"/>
		</g>
		<g>
			<defs>
				<path id="SVGID_3_" d="M183.539,137.223l54.99,232.302c0,0,3.278,9.519,9.52,9.519s10.575-7.403,10.575-7.403l56.754-251.689
					L183.539,137.223z"/>
			</defs>
			<clipPath id="SVGID_4_">
				<use xlink:href="#SVGID_3_"  overflow="visible"/>
			</clipPath>
			<g clip-path="url(#SVGID_4_)">
				
					<rect x="96.659" y="95.887" transform="matrix(0.7071 -0.7071 0.7071 0.7071 -103.3273 250.5477)" fill="none" stroke="#E0AE67" stroke-width="3" width="308.228" height="308.228"/>
				<line fill="none" stroke="#E0AE67" stroke-width="3" x1="230.976" y1="448.157" x2="448.928" y2="230.205"/>
				<line fill="none" stroke="#E0AE67" stroke-width="3" x1="211.181" y1="428.363" x2="429.134" y2="210.411"/>
				<line fill="none" stroke="#E0AE67" stroke-width="3" x1="191.28" y1="408.462" x2="409.232" y2="190.51"/>
				<line fill="none" stroke="#E0AE67" stroke-width="3" x1="171.485" y1="388.668" x2="389.438" y2="170.715"/>
				<line fill="none" stroke="#E0AE67" stroke-width="3" x1="151.691" y1="368.873" x2="369.644" y2="150.921"/>
				<line fill="none" stroke="#E0AE67" stroke-width="3" x1="131.896" y1="349.079" x2="349.849" y2="131.126"/>
				<line fill="none" stroke="#E0AE67" stroke-width="3" x1="112.102" y1="329.284" x2="330.055" y2="111.332"/>
				<line fill="none" stroke="#E0AE67" stroke-width="3" x1="92.308" y1="309.489" x2="310.26" y2="91.537"/>
				<line fill="none" stroke="#E0AE67" stroke-width="3" x1="72.407" y1="289.589" x2="290.359" y2="71.636"/>
				<line fill="none" stroke="#E0AE67" stroke-width="3" x1="52.612" y1="269.794" x2="270.564" y2="51.842"/>
				<line fill="none" stroke="#E0AE67" stroke-width="3" x1="230.976" y1="51.842" x2="448.928" y2="269.794"/>
				<line fill="none" stroke="#E0AE67" stroke-width="3" x1="211.127" y1="71.689" x2="429.079" y2="289.643"/>
				<line fill="none" stroke="#E0AE67" stroke-width="3" x1="191.333" y1="91.484" x2="409.284" y2="309.438"/>
				<line fill="none" stroke="#E0AE67" stroke-width="3" x1="171.539" y1="111.278" x2="389.49" y2="329.23"/>
				<line fill="none" stroke="#E0AE67" stroke-width="3" x1="151.691" y1="131.126" x2="369.644" y2="349.079"/>
				<line fill="none" stroke="#E0AE67" stroke-width="3" x1="131.896" y1="150.921" x2="349.849" y2="368.873"/>
				<line fill="none" stroke="#E0AE67" stroke-width="3" x1="112.049" y1="170.769" x2="330.001" y2="388.721"/>
				<line fill="none" stroke="#E0AE67" stroke-width="3" x1="92.254" y1="190.563" x2="310.206" y2="408.516"/>
				<line fill="none" stroke="#E0AE67" stroke-width="3" x1="72.46" y1="210.357" x2="290.412" y2="428.31"/>
				<line fill="none" stroke="#E0AE67" stroke-width="3" x1="52.612" y1="230.205" x2="270.564" y2="448.157"/>
			</g>
		</g>
		<g>
			<defs>
				<path id="SVGID_5_" d="M183.539,137.223l54.99,232.302c0,0,3.278,9.519,9.52,9.519s10.575-7.403,10.575-7.403l56.754-251.689
					L183.539,137.223z"/>
			</defs>
			<clipPath id="SVGID_6_">
				<use xlink:href="#SVGID_5_"  overflow="visible"/>
			</clipPath>
			<g clip-path="url(#SVGID_6_)">
				
					<rect x="95.12" y="95.885" transform="matrix(0.7071 -0.7071 0.7071 0.7071 -103.7777 249.4592)" fill="none" stroke="#FDCFAB" stroke-width="3" width="308.229" height="308.23"/>
				<line fill="none" stroke="#FDCFAB" stroke-width="3" x1="229.437" y1="448.157" x2="447.389" y2="230.205"/>
				<line fill="none" stroke="#FDCFAB" stroke-width="3" x1="209.642" y1="428.363" x2="427.595" y2="210.411"/>
				<line fill="none" stroke="#FDCFAB" stroke-width="3" x1="189.741" y1="408.462" x2="407.693" y2="190.51"/>
				<line fill="none" stroke="#FDCFAB" stroke-width="3" x1="169.946" y1="388.668" x2="387.898" y2="170.715"/>
				<line fill="none" stroke="#FDCFAB" stroke-width="3" x1="150.152" y1="368.873" x2="368.104" y2="150.921"/>
				<line fill="none" stroke="#FDCFAB" stroke-width="3" x1="130.357" y1="349.079" x2="348.31" y2="131.126"/>
				<line fill="none" stroke="#FDCFAB" stroke-width="3" x1="110.563" y1="329.284" x2="328.516" y2="111.332"/>
				<line fill="none" stroke="#FDCFAB" stroke-width="3" x1="90.768" y1="309.489" x2="308.721" y2="91.537"/>
				<line fill="none" stroke="#FDCFAB" stroke-width="3" x1="70.867" y1="289.589" x2="288.82" y2="71.636"/>
				<line fill="none" stroke="#FDCFAB" stroke-width="3" x1="51.073" y1="269.794" x2="269.025" y2="51.842"/>
				<line fill="none" stroke="#FDCFAB" stroke-width="3" x1="229.437" y1="51.842" x2="447.389" y2="269.794"/>
				<line fill="none" stroke="#FDCFAB" stroke-width="3" x1="209.588" y1="71.689" x2="427.54" y2="289.643"/>
				<line fill="none" stroke="#FDCFAB" stroke-width="3" x1="189.794" y1="91.484" x2="407.746" y2="309.438"/>
				<line fill="none" stroke="#FDCFAB" stroke-width="3" x1="170" y1="111.278" x2="387.951" y2="329.23"/>
				<line fill="none" stroke="#FDCFAB" stroke-width="3" x1="150.152" y1="131.126" x2="368.104" y2="349.079"/>
				<line fill="none" stroke="#FDCFAB" stroke-width="3" x1="130.357" y1="150.921" x2="348.31" y2="368.873"/>
				<line fill="none" stroke="#FDCFAB" stroke-width="3" x1="110.51" y1="170.769" x2="328.462" y2="388.721"/>
				<line fill="none" stroke="#FDCFAB" stroke-width="3" x1="90.715" y1="190.563" x2="308.668" y2="408.516"/>
				<line fill="none" stroke="#FDCFAB" stroke-width="3" x1="70.92" y1="210.357" x2="288.873" y2="428.31"/>
				<line fill="none" stroke="#FDCFAB" stroke-width="3" x1="51.073" y1="230.205" x2="269.025" y2="448.157"/>
			</g>
		</g>
	</g>
</g>
</svg>
