<svg version="1.1" id="Calque_1" xmlns="http://www.w3.org/2000/svg" xmlns:xlink="http://www.w3.org/1999/xlink" x="0px" y="0px"
	 width="500px" height="500px" viewBox="0 0 500 500" enable-background="new 0 0 500 500" xml:space="preserve">
<g>
	
		<rect x="95.115" y="95.885" transform="matrix(0.7071 -0.7071 0.7071 0.7071 -103.7793 249.4557)" fill="#FCC781" width="308.231" height="308.232"/>
</g>
<g>
	<g>
		<path fill="#E0AE67" d="M31.757,251.06l1.06-1.06l1.062,1.06L32.816,250L31.757,251.06L30.695,250L250.769,29.926L470.844,250
			L250.769,470.073L31.757,251.06L31.757,251.06z M250.769,465.828L466.601,250L250.769,34.168L34.939,249.999L250.769,465.828
			L250.769,465.828z"/>
	</g>
	<g>
		<polygon fill="#E0AE67" points="229.916,447.095 447.866,229.145 449.988,231.265 232.036,449.218 229.916,447.095 		"/>
	</g>
	<g>
		<polygon fill="#E0AE67" points="210.119,427.302 428.072,209.35 430.194,211.47 212.241,429.423 210.119,427.302 		"/>
	</g>
	<g>
		<polygon fill="#E0AE67" points="190.219,407.4 408.17,189.448 410.293,191.571 192.34,409.521 190.219,407.4 		"/>
	</g>
	<g>
		<polygon fill="#E0AE67" points="170.423,387.606 388.376,169.654 390.498,171.776 172.546,389.729 170.423,387.606 		"/>
	</g>
	<g>
		<polygon fill="#E0AE67" points="150.63,367.811 368.583,149.86 370.704,151.982 152.752,369.933 150.63,367.811 		"/>
	</g>
	<g>
		<polygon fill="#E0AE67" points="130.835,348.017 348.787,130.065 350.909,132.186 132.956,350.14 130.835,348.017 		"/>
	</g>
	<g>
		<polygon fill="#E0AE67" points="111.04,328.222 328.992,110.271 331.114,112.392 113.162,330.344 111.04,328.222 		"/>
	</g>
	<g>
		<polygon fill="#E0AE67" points="91.248,308.428 309.198,90.477 311.318,92.598 93.368,310.549 91.248,308.428 		"/>
	</g>
	<g>
		<polygon fill="#E0AE67" points="71.344,288.527 289.296,70.576 291.421,72.696 73.466,290.649 71.344,288.527 		"/>
	</g>
	<g>
		<polygon fill="#E0AE67" points="51.55,268.731 269.502,50.78 271.625,52.903 53.673,270.854 51.55,268.731 		"/>
	</g>
	<g>
		<polygon fill="#E0AE67" points="229.916,52.903 232.036,50.78 449.988,268.732 447.866,270.854 229.916,52.903 		"/>
	</g>
	<g>
		<polygon fill="#E0AE67" points="210.065,72.75 212.188,70.628 430.14,288.58 428.018,290.702 210.065,72.75 		"/>
	</g>
	<g>
		<polygon fill="#E0AE67" points="190.273,92.545 192.394,90.422 410.346,308.374 408.223,310.497 190.273,92.545 		"/>
	</g>
	<g>
		<polygon fill="#E0AE67" points="170.478,112.34 172.6,110.217 390.552,328.169 388.43,330.292 170.478,112.34 		"/>
	</g>
	<g>
		<polygon fill="#E0AE67" points="150.63,132.187 152.752,130.066 370.704,348.018 368.583,350.14 150.63,132.187 		"/>
	</g>
	<g>
		<polygon fill="#E0AE67" points="130.834,151.981 132.956,149.86 350.909,367.811 348.787,369.933 130.834,151.981 		"/>
	</g>
	<g>
		<polygon fill="#E0AE67" points="110.986,171.829 113.109,169.707 331.062,387.659 328.939,389.781 110.986,171.829 		"/>
	</g>
	<g>
		<polygon fill="#E0AE67" points="91.193,191.624 93.314,189.5 311.267,407.454 309.146,409.574 91.193,191.624 		"/>
	</g>
	<g>
		<polygon fill="#E0AE67" points="71.399,211.418 73.521,209.296 291.471,427.247 289.35,429.37 71.399,211.418 		"/>
	</g>
	<g>
		<polygon fill="#E0AE67" points="51.552,231.264 53.672,229.144 271.624,447.096 269.503,449.218 51.552,231.264 		"/>
	</g>
</g>
<g>
	<g>
		<path fill="#FDCFAB" d="M30.216,251.062L31.278,250l1.06,1.062L31.278,250L30.216,251.062L29.156,250L249.231,29.925L469.304,250
			L249.231,470.074L30.216,251.062L30.216,251.062z M249.231,465.828L465.061,250L249.231,34.168L33.398,250L249.231,465.828
			L249.231,465.828z"/>
	</g>
	<g>
		<polygon fill="#FDCFAB" points="228.375,447.096 446.327,229.144 448.449,231.264 230.498,449.218 228.375,447.096 		"/>
	</g>
	<g>
		<polygon fill="#FDCFAB" points="208.58,427.3 426.533,209.351 428.655,211.47 210.701,429.424 208.58,427.3 		"/>
	</g>
	<g>
		<polygon fill="#FDCFAB" points="188.679,407.399 406.631,189.448 408.754,191.569 190.8,409.522 188.679,407.399 		"/>
	</g>
	<g>
		<polygon fill="#FDCFAB" points="168.886,387.606 386.837,169.655 388.959,171.775 171.006,389.729 168.886,387.606 		"/>
	</g>
	<g>
		<polygon fill="#FDCFAB" points="149.09,367.811 367.043,149.86 369.164,151.981 151.211,369.933 149.09,367.811 		"/>
	</g>
	<g>
		<polygon fill="#FDCFAB" points="129.295,348.018 347.248,130.065 349.37,132.186 131.418,350.14 129.295,348.018 		"/>
	</g>
	<g>
		<polygon fill="#FDCFAB" points="109.502,328.222 327.453,110.271 329.575,112.393 111.624,330.345 109.502,328.222 		"/>
	</g>
	<g>
		<polygon fill="#FDCFAB" points="89.707,308.428 307.659,90.477 309.78,92.598 91.829,310.549 89.707,308.428 		"/>
	</g>
	<g>
		<polygon fill="#FDCFAB" points="69.805,288.527 287.759,70.576 289.881,72.697 71.927,290.649 69.805,288.527 		"/>
	</g>
	<g>
		<polygon fill="#FDCFAB" points="50.012,268.731 267.963,50.78 270.086,52.901 52.132,270.854 50.012,268.731 		"/>
	</g>
	<g>
		<polygon fill="#FDCFAB" points="228.375,52.902 230.497,50.78 448.449,268.732 446.327,270.854 228.375,52.902 		"/>
	</g>
	<g>
		<polygon fill="#FDCFAB" points="208.527,72.749 210.648,70.627 428.603,288.579 426.479,290.7 208.527,72.749 		"/>
	</g>
	<g>
		<polygon fill="#FDCFAB" points="188.733,92.543 190.854,90.422 408.806,308.374 406.686,310.497 188.733,92.543 		"/>
	</g>
	<g>
		<polygon fill="#FDCFAB" points="168.938,112.338 171.06,110.216 389.013,328.17 386.891,330.292 168.938,112.338 		"/>
	</g>
	<g>
		<polygon fill="#FDCFAB" points="149.09,132.186 151.211,130.064 369.165,348.019 367.042,350.14 149.09,132.186 		"/>
	</g>
	<g>
		<polygon fill="#FDCFAB" points="129.295,151.981 131.418,149.86 349.369,367.811 347.248,369.933 129.295,151.981 		"/>
	</g>
	<g>
		<polygon fill="#FDCFAB" points="109.448,171.829 111.57,169.707 329.522,387.659 327.4,389.781 109.448,171.829 		"/>
	</g>
	<g>
		<polygon fill="#FDCFAB" points="89.653,191.624 91.776,189.5 309.729,407.454 307.605,409.574 89.653,191.624 		"/>
	</g>
	<g>
		<polygon fill="#FDCFAB" points="69.859,211.418 71.98,209.296 289.934,427.247 287.812,429.37 69.859,211.418 		"/>
	</g>
	<g>
		<polygon fill="#FDCFAB" points="50.012,231.264 52.133,229.144 270.084,447.096 267.964,449.218 50.012,231.264 		"/>
	</g>
</g>
</svg>
