<svg version="1.1" xmlns="http://www.w3.org/2000/svg" xmlns:xlink="http://www.w3.org/1999/xlink" x="0px" y="0px" width="500px"
	 height="500px" viewBox="0 0 500 500" enable-background="new 0 0 500 500" xml:space="preserve">
<g id="belgian-waffle">
	<path fill="#F8B469" d="M399.947,107.981c0-4.379-3.55-7.929-7.929-7.929H107.981c-4.379,0-7.929,3.55-7.929,7.929V392.02
		c0,4.379,3.55,7.928,7.929,7.928h284.038c4.379,0,7.929-3.549,7.929-7.928L399.947,107.981L399.947,107.981z"/>
	<g>
		<path fill="#FCC781" d="M313.592,309.456c0,4.379-3.55,7.929-7.93,7.929H261.85c-4.379,0-7.929-3.55-7.929-7.929v-43.813
			c0-4.379,3.55-7.929,7.929-7.929h43.813c4.38,0,7.93,3.55,7.93,7.929V309.456z"/>
		<path fill="#FCC781" d="M384.098,309.456c0,4.379-3.55,7.929-7.929,7.929h-43.813c-4.379,0-7.929-3.55-7.929-7.929v-43.813
			c0-4.379,3.55-7.929,7.929-7.929h43.813c4.379,0,7.929,3.55,7.929,7.929V309.456z"/>
		<path fill="#FCC781" d="M172.58,309.456c0,4.379-3.551,7.929-7.93,7.929h-43.813c-4.379,0-7.929-3.55-7.929-7.929v-43.813
			c0-4.379,3.55-7.929,7.929-7.929h43.813c4.379,0,7.93,3.55,7.93,7.929V309.456z"/>
		<path fill="#FCC781" d="M243.086,309.456c0,4.379-3.55,7.929-7.929,7.929h-43.813c-4.378,0-7.928-3.55-7.928-7.929v-43.813
			c0-4.379,3.55-7.929,7.928-7.929h43.813c4.379,0,7.929,3.55,7.929,7.929V309.456z"/>
		<path fill="#FCC781" d="M313.592,379.866c0,4.379-3.55,7.929-7.93,7.929H261.85c-4.379,0-7.929-3.55-7.929-7.929v-43.813
			c0-4.379,3.55-7.929,7.929-7.929h43.813c4.38,0,7.93,3.55,7.93,7.929V379.866z"/>
		<path fill="#FCC781" d="M384.098,379.866c0,4.379-3.55,7.929-7.929,7.929h-43.813c-4.379,0-7.929-3.55-7.929-7.929v-43.813
			c0-4.379,3.55-7.929,7.929-7.929h43.813c4.379,0,7.929,3.55,7.929,7.929V379.866z"/>
		<path fill="#FCC781" d="M172.58,379.866c0,4.379-3.551,7.929-7.93,7.929h-43.813c-4.379,0-7.929-3.55-7.929-7.929v-43.813
			c0-4.379,3.55-7.929,7.929-7.929h43.813c4.379,0,7.93,3.55,7.93,7.929V379.866z"/>
		<path fill="#FCC781" d="M243.086,379.866c0,4.379-3.55,7.929-7.929,7.929h-43.813c-4.378,0-7.928-3.55-7.928-7.929v-43.813
			c0-4.379,3.55-7.929,7.928-7.929h43.813c4.379,0,7.929,3.55,7.929,7.929V379.866z"/>
		<path fill="#FCC781" d="M313.592,168.635c0,4.379-3.55,7.929-7.93,7.929H261.85c-4.379,0-7.929-3.55-7.929-7.929v-43.813
			c0-4.379,3.55-7.929,7.929-7.929h43.813c4.38,0,7.93,3.55,7.93,7.929V168.635z"/>
		<path fill="#FCC781" d="M384.098,168.635c0,4.379-3.55,7.929-7.929,7.929h-43.813c-4.379,0-7.929-3.55-7.929-7.929v-43.813
			c0-4.379,3.55-7.929,7.929-7.929h43.813c4.379,0,7.929,3.55,7.929,7.929V168.635z"/>
		<path fill="#FCC781" d="M172.58,168.635c0,4.379-3.551,7.929-7.93,7.929h-43.813c-4.379,0-7.929-3.55-7.929-7.929v-43.813
			c0-4.379,3.55-7.929,7.929-7.929h43.813c4.379,0,7.93,3.55,7.93,7.929V168.635z"/>
		<path fill="#FCC781" d="M243.086,168.635c0,4.379-3.55,7.929-7.929,7.929h-43.813c-4.378,0-7.928-3.55-7.928-7.929v-43.813
			c0-4.379,3.55-7.929,7.928-7.929h43.813c4.379,0,7.929,3.55,7.929,7.929V168.635z"/>
		<path fill="#FCC781" d="M313.592,239.045c0,4.379-3.55,7.929-7.93,7.929H261.85c-4.379,0-7.929-3.55-7.929-7.929v-43.813
			c0-4.379,3.55-7.929,7.929-7.929h43.813c4.38,0,7.93,3.55,7.93,7.929V239.045z"/>
		<path fill="#FCC781" d="M384.098,239.045c0,4.379-3.55,7.929-7.929,7.929h-43.813c-4.379,0-7.929-3.55-7.929-7.929v-43.813
			c0-4.379,3.55-7.929,7.929-7.929h43.813c4.379,0,7.929,3.55,7.929,7.929V239.045z"/>
		<path fill="#FCC781" d="M172.58,239.045c0,4.379-3.551,7.929-7.93,7.929h-43.813c-4.379,0-7.929-3.55-7.929-7.929v-43.813
			c0-4.379,3.55-7.929,7.929-7.929h43.813c4.379,0,7.93,3.55,7.93,7.929V239.045z"/>
		<path fill="#FCC781" d="M243.086,239.045c0,4.379-3.55,7.929-7.929,7.929h-43.813c-4.378,0-7.928-3.55-7.928-7.929v-43.813
			c0-4.379,3.55-7.929,7.928-7.929h43.813c4.379,0,7.929,3.55,7.929,7.929V239.045z"/>
	</g>
</g>
<g id="cream-5">
	<g>
		<path fill="#F8F4F5" d="M355.424,323.814c-0.033-3.795-1.22-7.162-3.66-9.604c-2.44-2.439-5.808-3.625-9.604-3.66
			c-2.563-2.518-5.583-4.033-8.824-4.188c-0.021-0.002-0.038-0.002-0.058-0.002c-0.165-0.008-0.33-0.012-0.497-0.012
			c-0.173,0-0.346,0.004-0.517,0.012c-0.008,0-0.017,0-0.023,0c-3.247,0.154-6.271,1.668-8.838,4.189
			c-3.798,0.035-7.164,1.221-9.604,3.66c-2.441,2.441-3.626,5.809-3.659,9.604c-0.479,0.486-0.918,0.987-1.32,1.504
			c-1.294,1.502-3.068,4.221-3.068,7.869c0,3.59,1.776,6.358,3.106,7.93c0.393,0.499,0.82,0.984,1.282,1.457
			c0.033,3.795,1.218,7.16,3.659,9.603c2.44,2.442,5.808,3.628,9.604,3.661c0.018,0.016,0.033,0.031,0.05,0.049
			c0.438,0.525,3.793,4.331,9.139,4.331c2.178,0,4.054-0.651,5.542-1.464c1.433-0.708,2.782-1.693,4.026-2.916
			c3.798-0.033,7.164-1.22,9.604-3.66c2.44-2.441,3.627-5.809,3.66-9.604c2.66-2.71,4.203-5.928,4.203-9.381
			C359.627,329.743,358.085,326.525,355.424,323.814z"/>
		<g>
			<path fill="#FFFFFF" d="M353.965,323.779c-0.032-3.618-1.162-6.828-3.488-9.154c-2.326-2.327-5.535-3.456-9.154-3.488
				c-2.442-2.4-5.321-3.846-8.413-3.992c-0.018-0.002-0.034-0.002-0.054-0.004c-0.157-0.007-0.313-0.01-0.474-0.01
				c-0.165,0-0.33,0.003-0.494,0.012c-0.007,0-0.015,0-0.021,0c-3.095,0.146-5.978,1.59-8.425,3.994
				c-3.619,0.032-6.827,1.161-9.154,3.488c-2.326,2.326-3.455,5.536-3.488,9.154c-0.453,0.463-0.874,0.94-1.257,1.434
				c-1.233,1.43-2.925,4.021-2.925,7.5c0,3.422,1.691,6.061,2.96,7.557c0.373,0.479,0.781,0.939,1.222,1.39
				c0.033,3.618,1.162,6.827,3.488,9.153c2.327,2.328,5.535,3.457,9.154,3.488c0.018,0.016,0.033,0.031,0.049,0.047
				c0.417,0.502,3.615,4.129,8.709,4.129c2.077,0,3.864-0.623,5.282-1.396c1.365-0.677,2.654-1.614,3.84-2.78
				c3.619-0.031,6.828-1.16,9.154-3.488c2.326-2.326,3.456-5.535,3.488-9.153c2.536-2.581,4.007-5.649,4.007-8.94
				C357.972,329.428,356.501,326.361,353.965,323.779z"/>
			<g>
				<g>
					<defs>
						<path id="SVGID_1_" d="M353.965,323.281c-0.032-3.619-1.162-6.827-3.488-9.155c-2.326-2.326-5.535-3.455-9.154-3.487
							c-2.442-2.399-5.321-3.845-8.413-3.992c-0.018,0-0.034-0.002-0.054-0.002c-0.157-0.008-0.313-0.013-0.474-0.013
							c-0.165,0-0.33,0.005-0.494,0.013c-0.007,0-0.015,0.002-0.021,0.002c-3.095,0.145-5.978,1.59-8.425,3.992
							c-3.619,0.032-6.827,1.161-9.154,3.487c-2.326,2.328-3.455,5.536-3.488,9.155c-0.453,0.463-0.874,0.941-1.257,1.434
							c-1.233,1.43-2.925,4.021-2.925,7.499c0,3.425,1.691,6.063,2.96,7.558c0.373,0.478,0.781,0.94,1.222,1.39
							c0.033,3.62,1.162,6.827,3.488,9.155c2.327,2.326,5.535,3.455,9.154,3.488c0.018,0.016,0.033,0.03,0.049,0.045
							c0.417,0.502,3.615,4.131,8.709,4.131c2.077,0,3.864-0.623,5.282-1.396c1.365-0.675,2.654-1.615,3.84-2.779
							c3.619-0.033,6.828-1.162,9.154-3.488c2.326-2.327,3.456-5.534,3.488-9.154c2.536-2.582,4.007-5.648,4.007-8.939
							C357.972,328.932,356.501,325.863,353.965,323.281z"/>
					</defs>
					<clipPath id="SVGID_2_">
						<use xlink:href="#SVGID_1_"  overflow="visible"/>
					</clipPath>
					<g clip-path="url(#SVGID_2_)">
						<g>
							<path fill="none" d="M367.255,349.77c-10.339,15.945-31.646,20.492-47.593,10.153c-12.757-8.271-16.394-25.315-8.123-38.073
								c6.616-10.205,20.254-13.113,30.459-6.498c8.164,5.293,10.491,16.203,5.198,24.366c-4.233,6.531-12.962,8.394-19.494,4.16
								c-5.225-3.39-6.715-10.371-3.325-15.596c2.71-4.181,8.296-5.371,12.476-2.661c3.344,2.167,4.298,6.637,2.129,9.979
								c-1.732,2.676-5.309,3.438-7.982,1.703c-2.142-1.387-2.751-4.246-1.363-6.387"/>
							<path fill="#F8F4F5" d="M365.345,348.156c-8.774,12.951-24.836,18.724-39.692,13.244
								c-17.024-6.278-21.496-27.953-9.646-41.176c5.116-5.711,13.288-7.518,20.532-5.777c10.174,2.441,13.806,13.685,9.453,22.474
								c-4.149,8.384-19.474,11.021-21.281-0.504c-0.707-4.503,2.294-8.588,6.354-10.065c4.995-1.818,8.126,3.631,6.009,7.637
								c-1.731,3.279-7.029,1.736-5.361-1.79c0.729-1.546-3.23-4.503-4.148-2.562c-3.912,8.272,9.574,14.687,13.939,6.426
								c4.423-8.371-6.709-14.854-13.657-13.371c-4.658,0.994-7.081,6.041-7.356,10.338c-0.281,4.408,2.188,8.232,5.281,11.104
								c7.379,6.853,19.158,4.226,24.045-3.987c5.098-8.567,1.373-19.097-5.813-25.035c-7.714-6.377-18.984-6.696-27.402-1.703
								c-9.116,5.406-12.61,16.998-11.216,26.992c1.362,9.767,8.303,18.248,16.922,22.67c16.461,8.445,36.422,3.725,46.862-11.688
								C370.252,349.777,366.355,346.664,365.345,348.156L365.345,348.156z"/>
						</g>
					</g>
				</g>
			</g>
		</g>
	</g>
</g>
<g id="cream-4">
	<g>
		<path fill="#F8F4F5" d="M178.347,330.781c-0.037-4.25-1.363-8.018-4.096-10.75c-2.732-2.731-6.5-4.059-10.75-4.096
			c-2.869-2.818-6.25-4.517-9.878-4.689c-0.021,0-0.042-0.001-0.063-0.002c-0.185-0.008-0.37-0.014-0.556-0.014
			c-0.194,0-0.387,0.006-0.58,0.015c-0.008,0-0.017,0.001-0.024,0.001c-3.635,0.17-7.02,1.867-9.894,4.689
			c-4.25,0.037-8.018,1.363-10.75,4.096s-4.059,6.5-4.096,10.75c-0.534,0.543-1.026,1.104-1.478,1.684
			c-1.448,1.678-3.434,4.723-3.434,8.807c0,4.021,1.987,7.117,3.476,8.875c0.439,0.56,0.918,1.104,1.436,1.629
			c0.037,4.25,1.363,8.019,4.096,10.75c2.732,2.732,6.5,4.06,10.75,4.097c0.019,0.021,0.038,0.037,0.057,0.055
			c0.491,0.589,4.246,4.851,10.228,4.851c2.438,0,4.537-0.732,6.203-1.639c1.603-0.796,3.115-1.896,4.508-3.267
			c4.25-0.037,8.017-1.363,10.75-4.097c2.732-2.732,4.059-6.5,4.096-10.75c2.979-3.03,4.705-6.633,4.705-10.496
			C183.052,337.414,181.325,333.813,178.347,330.781z"/>
		<g>
			<path fill="#FFFFFF" d="M176.714,330.74c-0.036-4.051-1.3-7.641-3.904-10.246c-2.604-2.604-6.195-3.868-10.246-3.904
				c-2.733-2.686-5.956-4.303-9.416-4.469c-0.02-0.001-0.04-0.002-0.06-0.002c-0.176-0.008-0.354-0.014-0.53-0.014
				c-0.185,0-0.369,0.006-0.552,0.014c-0.008,0-0.017,0.001-0.023,0.001c-3.464,0.163-6.69,1.778-9.43,4.47
				c-4.051,0.036-7.642,1.301-10.246,3.904c-2.604,2.605-3.869,6.195-3.905,10.246c-0.509,0.518-0.979,1.053-1.407,1.604
				c-1.381,1.602-3.273,4.502-3.273,8.395c0,3.832,1.895,6.785,3.313,8.459c0.419,0.533,0.875,1.053,1.367,1.555
				c0.036,4.051,1.301,7.643,3.905,10.246s6.195,3.867,10.246,3.904c0.018,0.018,0.036,0.033,0.054,0.051
				c0.468,0.563,4.047,4.623,9.748,4.623c2.324,0,4.324-0.697,5.913-1.563c1.527-0.757,2.97-1.81,4.297-3.111
				c4.051-0.037,7.643-1.301,10.246-3.904c2.604-2.604,3.868-6.195,3.904-10.246c2.839-2.891,4.484-6.322,4.484-10.006
				S179.553,333.63,176.714,330.74z"/>
			<g>
				<g>
					<defs>
						<path id="SVGID_3_" d="M176.714,330.184c-0.036-4.051-1.3-7.642-3.904-10.246c-2.604-2.604-6.195-3.867-10.246-3.903
							c-2.733-2.688-5.956-4.304-9.416-4.47c-0.02-0.002-0.04-0.002-0.06-0.002c-0.176-0.008-0.354-0.014-0.53-0.014
							c-0.185,0-0.369,0.006-0.552,0.014c-0.008,0-0.017,0-0.023,0.002c-3.464,0.162-6.69,1.778-9.43,4.47
							c-4.051,0.036-7.642,1.301-10.246,3.903c-2.604,2.604-3.869,6.195-3.905,10.246c-0.509,0.519-0.979,1.053-1.407,1.604
							c-1.381,1.601-3.273,4.502-3.273,8.396c0,3.832,1.895,6.784,3.313,8.459c0.419,0.532,0.875,1.053,1.367,1.555
							c0.036,4.051,1.301,7.641,3.905,10.246c2.604,2.604,6.195,3.867,10.246,3.904c0.018,0.018,0.036,0.032,0.054,0.051
							c0.468,0.561,4.047,4.623,9.748,4.623c2.324,0,4.324-0.697,5.913-1.563c1.527-0.758,2.97-1.81,4.297-3.11
							c4.051-0.037,7.643-1.302,10.246-3.904c2.604-2.605,3.868-6.195,3.904-10.246c2.839-2.891,4.484-6.324,4.484-10.006
							C181.198,336.506,179.553,333.072,176.714,330.184z"/>
					</defs>
					<clipPath id="SVGID_4_">
						<use xlink:href="#SVGID_3_"  overflow="visible"/>
					</clipPath>
					<g clip-path="url(#SVGID_4_)">
						<g>
							<path fill="none" d="M191.589,359.83c-11.57,17.848-35.419,22.936-53.268,11.365c-14.277-9.258-18.349-28.336-9.092-42.614
								c7.405-11.423,22.668-14.679,34.091-7.274c9.139,5.926,11.743,18.137,5.818,27.273c-4.739,7.311-14.507,9.395-21.818,4.654
								c-5.848-3.791-7.516-11.605-3.724-17.453c3.033-4.68,9.285-6.014,13.964-2.98c3.743,2.428,4.811,7.428,2.383,11.172
								c-1.94,2.994-5.941,3.848-8.937,1.906c-2.396-1.553-3.079-4.754-1.525-7.15"/>
							<path fill="#F8F4F5" d="M189.679,358.217c-10.006,14.842-28.61,21.188-45.42,14.516
								c-18.914-7.506-23.622-32.371-9.636-46.793c6.477-6.678,16.813-8.256,25.253-4.883c10.502,4.197,12.763,16.887,7.354,25.91
								c-5.493,9.16-22.19,9.779-23.553-2.738c-0.593-5.449,3.535-10.33,8.772-11.104c5.943-0.877,7.854,5.025,5.586,9.234
								c-2.183,4.045-8.802,2.563-6.479-2.351c0.73-1.545-3.229-4.503-4.147-2.561c-4.064,8.596,8.797,15.186,14.445,8.135
								c6.322-7.888-4.563-16.426-11.822-16.289c-11.041,0.209-12.504,14.224-7.426,21.312c5.583,7.789,16.978,9.076,24.552,3.711
								c8.413-5.957,8.687-17.813,4.354-26.197c-4.543-8.792-15.28-13.111-24.722-12.619c-10.789,0.563-18.95,8.348-22.728,17.988
								c-3.785,9.662-1.708,20.713,3.796,29.23c15.151,23.444,50.898,20.594,65.642-1.277
								C194.583,359.836,190.685,356.725,189.679,358.217L189.679,358.217z"/>
						</g>
					</g>
				</g>
			</g>
		</g>
	</g>
</g>
<g id="cream-3">
	<g>
		<path fill="#F8F4F5" d="M359.68,164.49c-0.037-4.25-1.363-8.017-4.096-10.75c-2.732-2.731-6.5-4.058-10.75-4.096
			c-2.869-2.818-6.249-4.515-9.879-4.688c-0.021-0.001-0.042-0.001-0.063-0.002c-0.186-0.008-0.369-0.013-0.556-0.013
			c-0.194,0-0.389,0.005-0.579,0.014c-0.01,0-0.019,0-0.025,0.001c-3.635,0.17-7.02,1.867-9.893,4.689
			c-4.25,0.039-8.019,1.365-10.75,4.096c-2.732,2.733-4.06,6.5-4.097,10.75c-0.533,0.543-1.026,1.104-1.478,1.683
			c-1.448,1.679-3.436,4.723-3.436,8.807c0,4.02,1.988,7.117,3.478,8.875c0.438,0.559,0.918,1.104,1.436,1.63
			c0.037,4.249,1.363,8.017,4.097,10.749c2.732,2.732,6.5,4.059,10.75,4.097c0.019,0.019,0.037,0.036,0.057,0.054
			c0.49,0.589,4.245,4.85,10.227,4.85c2.438,0,4.537-0.731,6.203-1.639c1.604-0.794,3.115-1.896,4.509-3.265
			c4.25-0.038,8.018-1.364,10.75-4.097c2.731-2.733,4.059-6.5,4.096-10.749c2.979-3.032,4.705-6.634,4.705-10.497
			C364.385,171.123,362.657,167.521,359.68,164.49z"/>
		<g>
			<path fill="#FFFFFF" d="M358.047,164.449c-0.036-4.05-1.302-7.641-3.904-10.246c-2.604-2.604-6.195-3.868-10.246-3.904
				c-2.734-2.686-5.956-4.303-9.416-4.469c-0.02-0.001-0.039-0.001-0.06-0.002c-0.177-0.008-0.354-0.013-0.53-0.013
				c-0.186,0-0.369,0.005-0.553,0.014c-0.009,0-0.017,0-0.023,0c-3.464,0.163-6.689,1.779-9.43,4.47
				c-4.051,0.036-7.642,1.3-10.245,3.904c-2.604,2.605-3.868,6.196-3.905,10.246c-0.508,0.518-0.979,1.053-1.407,1.604
				c-1.38,1.6-3.271,4.502-3.271,8.394c0,3.831,1.894,6.784,3.313,8.458c0.418,0.534,0.875,1.053,1.367,1.555
				c0.037,4.051,1.301,7.643,3.905,10.246c2.604,2.604,6.194,3.868,10.245,3.904c0.019,0.018,0.037,0.034,0.055,0.052
				c0.467,0.562,4.047,4.622,9.748,4.622c2.324,0,4.324-0.697,5.912-1.563c1.527-0.756,2.971-1.808,4.297-3.111
				c4.051-0.036,7.643-1.3,10.246-3.904s3.868-6.195,3.904-10.246c2.839-2.89,4.483-6.322,4.483-10.006
				C362.531,170.771,360.886,167.338,358.047,164.449z"/>
			<g>
				<g>
					<defs>
						<path id="SVGID_5_" d="M358.047,163.892c-0.036-4.05-1.302-7.641-3.904-10.246c-2.604-2.604-6.195-3.868-10.246-3.904
							c-2.734-2.687-5.956-4.303-9.416-4.469c-0.02-0.001-0.039-0.001-0.06-0.002c-0.177-0.008-0.354-0.013-0.53-0.013
							c-0.186,0-0.369,0.005-0.553,0.014c-0.009,0-0.017,0-0.023,0.001c-3.464,0.162-6.689,1.779-9.43,4.469
							c-4.051,0.037-7.642,1.301-10.245,3.904c-2.604,2.605-3.868,6.196-3.905,10.246c-0.508,0.518-0.979,1.054-1.407,1.604
							c-1.38,1.6-3.271,4.502-3.271,8.394c0,3.832,1.894,6.785,3.313,8.459c0.418,0.533,0.875,1.053,1.367,1.555
							c0.037,4.051,1.301,7.641,3.905,10.246c2.604,2.604,6.194,3.867,10.245,3.904c0.019,0.018,0.037,0.034,0.055,0.051
							c0.467,0.562,4.047,4.623,9.748,4.623c2.324,0,4.324-0.697,5.912-1.563c1.527-0.757,2.971-1.809,4.297-3.111
							c4.051-0.037,7.643-1.301,10.246-3.904c2.604-2.605,3.868-6.195,3.904-10.246c2.839-2.891,4.483-6.323,4.483-10.006
							C362.531,170.214,360.886,166.781,358.047,163.892z"/>
					</defs>
					<clipPath id="SVGID_6_">
						<use xlink:href="#SVGID_5_"  overflow="visible"/>
					</clipPath>
					<g clip-path="url(#SVGID_6_)">
						<g>
							<path fill="none" d="M372.922,193.538c-11.57,17.848-35.419,22.936-53.268,11.365c-14.277-9.258-18.349-28.336-9.092-42.614
								c7.405-11.422,22.668-14.679,34.091-7.274c9.138,5.925,11.742,18.135,5.818,27.272c-4.739,7.311-14.508,9.395-21.818,4.655
								c-5.848-3.792-7.516-11.606-3.724-17.454c3.033-4.679,9.285-6.013,13.964-2.979c3.742,2.427,4.81,7.428,2.383,11.171
								c-1.939,2.994-5.94,3.848-8.936,1.906c-2.396-1.553-3.079-4.754-1.525-7.149"/>
							<path fill="#F8F4F5" d="M371.012,191.926c-10.006,14.842-28.61,21.187-45.42,14.515
								c-18.914-7.506-23.621-32.371-9.637-46.792c6.479-6.679,16.813-8.257,25.254-4.884c10.502,4.198,12.764,16.888,7.354,25.911
								c-5.492,9.16-22.191,9.779-23.553-2.738c-0.594-5.45,3.535-10.331,8.771-11.104c5.945-0.877,7.855,5.026,5.586,9.235
								c-2.182,4.045-8.801,2.563-6.477-2.351c0.729-1.545-3.23-4.502-4.148-2.56c-4.063,8.595,8.797,15.185,14.445,8.135
								c6.322-7.887-4.563-16.426-11.822-16.289c-11.041,0.208-12.504,14.223-7.426,21.31c5.582,7.79,16.977,9.076,24.551,3.712
								c8.414-5.958,8.688-17.813,4.354-26.197c-4.543-8.792-15.279-13.112-24.723-12.62c-10.787,0.563-18.949,8.349-22.728,17.989
								c-3.785,9.661-1.707,20.713,3.797,29.229c15.15,23.445,50.897,20.594,65.641-1.276
								C375.915,193.544,372.018,190.433,371.012,191.926L371.012,191.926z"/>
						</g>
					</g>
				</g>
			</g>
		</g>
	</g>
</g>
<g id="cream-2">
	<g>
		<path fill="#F8F4F5" d="M174.266,174.337c-0.032-3.564-1.144-6.725-3.436-9.017s-5.453-3.404-9.018-3.436
			c-2.405-2.364-5.242-3.787-8.286-3.933c-0.018-0.001-0.034-0.001-0.053-0.002c-0.155-0.007-0.31-0.011-0.466-0.011
			c-0.163,0-0.325,0.004-0.486,0.012c-0.007,0-0.014,0-0.021,0.001c-3.049,0.143-5.89,1.566-8.299,3.933
			c-3.564,0.032-6.726,1.145-9.018,3.436c-2.292,2.292-3.403,5.453-3.436,9.017c-0.448,0.456-0.861,0.926-1.239,1.412
			c-1.215,1.408-2.881,3.962-2.881,7.387c0,3.372,1.667,5.97,2.916,7.444c0.369,0.469,0.77,0.926,1.204,1.367
			c0.032,3.563,1.144,6.725,3.436,9.017s5.452,3.404,9.018,3.436c0.016,0.015,0.03,0.03,0.047,0.045
			c0.412,0.494,3.561,4.068,8.579,4.068c2.045,0,3.805-0.614,5.203-1.375c1.345-0.666,2.612-1.59,3.78-2.738
			c3.564-0.032,6.726-1.144,9.018-3.436s3.403-5.452,3.436-9.017c2.498-2.543,3.946-5.564,3.946-8.805
			C178.212,179.901,176.764,176.88,174.266,174.337z"/>
		<g>
			<path fill="#FFFFFF" d="M172.896,174.303c-0.031-3.396-1.091-6.409-3.274-8.594c-2.185-2.184-5.196-3.245-8.595-3.275
				c-2.293-2.253-4.996-3.609-7.896-3.749c-0.018-0.001-0.034-0.001-0.051-0.002c-0.147-0.006-0.295-0.011-0.445-0.011
				c-0.155,0-0.309,0.004-0.463,0.012c-0.007,0-0.013,0-0.021,0c-2.905,0.137-5.611,1.493-7.909,3.75
				c-3.398,0.03-6.41,1.091-8.595,3.275c-2.185,2.185-3.245,5.197-3.274,8.594c-0.428,0.435-0.821,0.883-1.182,1.346
				c-1.157,1.342-2.745,3.776-2.745,7.041c0,3.214,1.589,5.69,2.778,7.095c0.353,0.447,0.734,0.882,1.147,1.304
				c0.029,3.397,1.091,6.41,3.274,8.594c2.186,2.185,5.196,3.245,8.595,3.275c0.015,0.015,0.029,0.029,0.045,0.043
				c0.392,0.471,3.395,3.877,8.177,3.877c1.949,0,3.627-0.585,4.96-1.311c1.281-0.635,2.491-1.517,3.604-2.61
				c3.397-0.03,6.41-1.09,8.595-3.275c2.185-2.184,3.245-5.197,3.274-8.594c2.381-2.424,3.761-5.304,3.761-8.393
				C176.656,179.606,175.277,176.727,172.896,174.303z"/>
			<g>
				<g>
					<defs>
						<path id="SVGID_7_" d="M172.896,173.835c-0.031-3.397-1.091-6.409-3.274-8.594c-2.185-2.184-5.196-3.244-8.595-3.275
							c-2.293-2.253-4.996-3.61-7.896-3.749c-0.018-0.001-0.034-0.001-0.051-0.002c-0.147-0.007-0.295-0.011-0.445-0.011
							c-0.155,0-0.309,0.004-0.463,0.012c-0.007,0-0.013,0-0.021,0c-2.905,0.136-5.611,1.493-7.909,3.749
							c-3.398,0.031-6.41,1.091-8.595,3.275c-2.185,2.185-3.245,5.197-3.274,8.594c-0.428,0.435-0.821,0.884-1.182,1.346
							c-1.157,1.342-2.745,3.776-2.745,7.041c0,3.214,1.589,5.69,2.778,7.095c0.353,0.447,0.734,0.882,1.147,1.304
							c0.029,3.397,1.091,6.41,3.274,8.594c2.185,2.184,5.196,3.245,8.595,3.275c0.015,0.014,0.029,0.028,0.045,0.043
							c0.392,0.47,3.395,3.877,8.177,3.877c1.949,0,3.627-0.585,4.96-1.311c1.281-0.635,2.491-1.517,3.604-2.609
							c3.397-0.031,6.41-1.091,8.595-3.275c2.185-2.185,3.245-5.197,3.274-8.594c2.381-2.424,3.761-5.304,3.761-8.393
							C176.658,179.139,175.277,176.259,172.896,173.835z"/>
					</defs>
					<clipPath id="SVGID_8_">
						<use xlink:href="#SVGID_7_"  overflow="visible"/>
					</clipPath>
					<g clip-path="url(#SVGID_8_)">
						<g>
							<path fill="none" d="M185.374,198.703c-9.706,14.971-29.709,19.238-44.681,9.533c-11.976-7.764-15.391-23.768-7.626-35.744
								c6.211-9.581,19.015-12.313,28.596-6.102c7.665,4.97,9.85,15.212,4.88,22.876c-3.976,6.132-12.168,7.88-18.301,3.905
								c-4.905-3.181-6.305-9.735-3.124-14.641c2.544-3.924,7.787-5.043,11.712-2.499c3.14,2.036,4.035,6.229,2,9.37
								c-1.628,2.511-4.985,3.227-7.496,1.599c-2.009-1.303-2.583-3.987-1.279-5.997"/>
							<path fill="#F8F4F5" d="M183.463,197.09c-7.792,11.476-21.336,16.792-34.813,13.235
								c-16.652-4.395-22.339-23.79-12.862-37.382c9.894-14.189,36.213-7.647,30.439,11.448c-2.356,7.798-15.538,13.764-20.06,4.308
								c-1.876-3.923,0.07-8.784,3.471-11.089c3.987-2.703,9.582,1.703,7.282,6.18c-1.532,2.981-6.318,1.725-4.791-1.505
								c0.729-1.544-3.23-4.501-4.148-2.56c-3.743,7.915,9.269,14.086,13.388,6.07c4.469-8.698-8.153-15.045-14.949-11.845
								c-9.697,4.567-4.115,17.406,2.661,21.328c8.936,5.171,18.884-0.35,21.674-9.576c2.865-9.476-3.755-18.281-11.758-22.386
								c-9.296-4.769-20.699-1.484-27.029,6.402c-6.295,7.843-6.666,19.859-2.019,28.542c4.911,9.174,13.936,14.876,24.063,16.667
								c12.966,2.293,25.994-3.892,33.272-14.611C188.372,198.713,184.476,195.598,183.463,197.09L183.463,197.09z"/>
						</g>
					</g>
				</g>
			</g>
		</g>
	</g>
</g>
<g id="cream-1">
	<g>
		<path fill="#F8F4F5" d="M274.667,243.247c-0.042-4.849-1.557-9.148-4.673-12.266c-3.118-3.117-7.417-4.63-12.268-4.674
			c-3.273-3.215-7.131-5.151-11.271-5.35c-0.024-0.001-0.049-0.001-0.072-0.002c-0.21-0.01-0.422-0.015-0.634-0.015
			c-0.222,0-0.442,0.006-0.662,0.016c-0.009,0-0.02,0-0.028,0.001c-4.147,0.195-8.01,2.13-11.289,5.351
			c-4.849,0.044-9.146,1.557-12.266,4.674c-3.118,3.118-4.63,7.417-4.674,12.266c-0.609,0.62-1.171,1.26-1.687,1.921
			c-1.653,1.916-3.918,5.39-3.918,10.048c0,4.588,2.269,8.122,3.966,10.129c0.501,0.637,1.047,1.258,1.639,1.858
			c0.043,4.849,1.556,9.147,4.674,12.267c3.119,3.116,7.417,4.631,12.266,4.674c0.021,0.021,0.043,0.041,0.064,0.062
			c0.56,0.672,4.845,5.534,11.67,5.534c2.782,0,5.177-0.836,7.078-1.87c1.83-0.906,3.556-2.164,5.145-3.726
			c4.851-0.043,9.148-1.558,12.268-4.674c3.116-3.119,4.631-7.418,4.673-12.267c3.397-3.46,5.369-7.569,5.369-11.978
			C280.036,250.814,278.065,246.706,274.667,243.247z"/>
		<g>
			<path fill="#FFFFFF" d="M272.804,243.2c-0.041-4.622-1.484-8.719-4.455-11.692c-2.971-2.971-7.069-4.414-11.69-4.455
				c-3.12-3.065-6.797-4.91-10.744-5.099c-0.023-0.001-0.045-0.001-0.068-0.003c-0.201-0.009-0.402-0.014-0.604-0.014
				c-0.212,0-0.422,0.005-0.631,0.016c-0.009,0-0.018,0-0.026,0c-3.953,0.186-7.635,2.03-10.76,5.1
				c-4.622,0.042-8.721,1.484-11.691,4.455c-2.972,2.973-4.415,7.07-4.456,11.692c-0.581,0.591-1.117,1.202-1.606,1.831
				c-1.574,1.826-3.734,5.137-3.734,9.578c0,4.371,2.162,7.742,3.78,9.65c0.479,0.61,0.999,1.201,1.562,1.774
				c0.041,4.622,1.483,8.721,4.456,11.69c2.971,2.973,7.069,4.414,11.691,4.455c0.021,0.021,0.041,0.039,0.062,0.061
				c0.533,0.641,4.618,5.273,11.123,5.273c2.652,0,4.934-0.796,6.747-1.783c1.742-0.862,3.39-2.063,4.902-3.551
				c4.621-0.041,8.721-1.482,11.69-4.455c2.971-2.971,4.414-7.068,4.455-11.69c3.239-3.298,5.117-7.214,5.117-11.417
				C277.921,250.415,276.043,246.497,272.804,243.2z"/>
			<g>
				<g>
					<defs>
						<path id="SVGID_9_" d="M272.804,242.564c-0.041-4.622-1.484-8.719-4.455-11.692c-2.971-2.971-7.069-4.413-11.69-4.455
							c-3.12-3.065-6.797-4.91-10.744-5.099c-0.023-0.001-0.045-0.001-0.068-0.003c-0.201-0.009-0.402-0.014-0.604-0.014
							c-0.212,0-0.422,0.005-0.631,0.016c-0.009,0-0.018,0-0.026,0.001c-3.953,0.185-7.635,2.03-10.76,5.1
							c-4.622,0.042-8.721,1.484-11.691,4.455c-2.972,2.973-4.415,7.07-4.456,11.692c-0.581,0.591-1.117,1.202-1.606,1.831
							c-1.574,1.826-3.734,5.137-3.734,9.579c0,4.373,2.162,7.741,3.78,9.651c0.479,0.608,0.999,1.201,1.562,1.774
							c0.041,4.621,1.483,8.718,4.456,11.69c2.971,2.972,7.069,4.412,11.691,4.455c0.021,0.021,0.041,0.039,0.062,0.058
							c0.533,0.642,4.618,5.275,11.123,5.275c2.652,0,4.934-0.796,6.747-1.783c1.742-0.863,3.39-2.063,4.902-3.55
							c4.621-0.043,8.721-1.483,11.69-4.455c2.971-2.974,4.414-7.069,4.455-11.69c3.239-3.299,5.117-7.217,5.117-11.418
							C277.922,249.78,276.043,245.861,272.804,242.564z"/>
					</defs>
					<clipPath id="SVGID_10_">
						<use xlink:href="#SVGID_9_"  overflow="visible"/>
					</clipPath>
					<g clip-path="url(#SVGID_10_)">
						<g>
							<path fill="none" d="M289.777,276.393c-13.201,20.366-40.416,26.172-60.78,12.969
								c-16.292-10.563-20.938-32.332-10.375-48.625c8.449-13.034,25.865-16.75,38.899-8.3c10.427,6.761,13.398,20.693,6.64,31.12
								c-5.407,8.342-16.555,10.721-24.896,5.313c-6.673-4.327-8.576-13.244-4.25-19.917c3.461-5.339,10.595-6.861,15.935-3.4
								c4.27,2.769,5.486,8.476,2.719,12.747c-2.214,3.416-6.78,4.39-10.197,2.175c-2.733-1.771-3.513-5.425-1.741-8.158"/>
							<path fill="#F8F4F5" d="M287.867,274.779c-11.917,17.76-34.601,24.666-54.173,15.633
								c-20.961-9.678-24.831-39.026-7.743-54.231c8.146-7.249,20.636-8.209,30.041-3.053c10.901,5.978,12.139,20.468,5.448,29.966
								c-7.413,10.525-27.5,8.484-26.588-6.566c0.369-6.082,5.203-10.639,11.148-10.916c5.375-0.249,7.676,4.468,6.714,8.961
								c-0.427,1.993-1.867,3.448-3.524,4.47c-3.604,2.221-7.401-1.379-5.549-5.115c0.879-1.771-3.077-4.724-3.82-3.225
								c-4.142,8.349,6.263,15.898,13.673,11.333c8.576-5.285,1.638-17.377-5.658-19.538c-10.373-3.072-18.254,5.671-17.031,15.781
								c1.158,9.574,11.097,15.318,19.953,15.395c10.978,0.094,18.329-9.93,19.079-20.038c0.722-9.737-5.147-18.432-13.176-23.361
								c-8.68-5.329-19.621-5.493-28.704-1.191c-9.859,4.669-15.525,15.212-16.864,25.667c-2.49,19.44,11.679,35.937,29.421,41.558
								c19.153,6.066,40.083-1.774,51.174-18.304C292.769,276.396,288.869,273.286,287.867,274.779L287.867,274.779z"/>
						</g>
					</g>
				</g>
			</g>
		</g>
	</g>
</g>
<g id="strawberry-4">
	<g>
		<path fill="#DF4D4E" d="M252.786,315.498c-6.787,2.104-11.215,10.256-15.556,15.281c-6.001,6.947-14.438,13.044-11.53,22.43
			c2.909,9.386,12.55,11.281,21.461,13.711c6.44,1.757,15.524,4.508,22.312,2.405c16.172-5.015,14.729-16.526,9.717-32.698
			C274.176,320.455,268.959,310.484,252.786,315.498z"/>
		
			<ellipse transform="matrix(-0.9875 0.1576 -0.1576 -0.9875 541.8286 677.1412)" fill="#633636" cx="244.064" cy="360.056" rx="2.571" ry="1.417"/>
		<ellipse fill="#633636" cx="246.033" cy="347.276" rx="2.569" ry="1.417"/>
		<path fill="#633636" d="M261.613,359.889c-1.375,0.351-2.333,1.246-2.14,2.006c0.192,0.758,1.462,1.092,2.841,0.742
			c1.375-0.35,2.333-1.248,2.143-2.007C264.262,359.871,262.992,359.539,261.613,359.889z"/>
		
			<ellipse transform="matrix(-0.9691 0.2468 -0.2468 -0.9691 541.4231 628.5986)" fill="#633636" cx="231.321" cy="348.227" rx="2.57" ry="1.417"/>
		
			<ellipse transform="matrix(-0.8939 0.4484 -0.4484 -0.8939 607.759 521.7484)" fill="#633636" cx="242.12" cy="332.815" rx="2.569" ry="1.419"/>
		
			<ellipse transform="matrix(-0.9745 -0.2244 0.2244 -0.9745 433.3669 715.2324)" fill="#633636" cx="257.324" cy="332.992" rx="2.57" ry="1.416"/>
		
			<ellipse transform="matrix(-0.9888 0.1492 -0.1492 -0.9888 567.8778 598.2977)" fill="#633636" cx="261.503" cy="320.444" rx="2.57" ry="1.417"/>
		
			<ellipse transform="matrix(-0.9102 0.4142 -0.4142 -0.9102 655.9161 527.0669)" fill="#633636" cx="270.82" cy="334.64" rx="2.57" ry="1.417"/>
		
			<ellipse transform="matrix(-0.9103 0.414 -0.414 -0.9103 644.4519 557.252)" fill="#633636" cx="261.839" cy="348.463" rx="2.571" ry="1.417"/>
		
			<ellipse transform="matrix(-0.9902 0.1398 -0.1398 -0.9902 596.145 665.0188)" fill="#633636" cx="274.72" cy="353.443" rx="2.571" ry="1.417"/>
	</g>
</g>
<g id="strawberry-3">
	<g>
		<path fill="#DF4D4E" d="M256.248,287.007c-4.044-4.919-12.307-5.832-17.945-7.731c-7.797-2.627-15.712-7.563-22.513-1.973
			c-6.803,5.594-5.111,14.232-4.11,22.448c0.724,5.938,1.517,14.407,5.56,19.325c9.637,11.72,18.698,6.625,30.419-3.01
			C259.378,306.432,265.884,298.727,256.248,287.007z"/>
		
			<ellipse transform="matrix(-0.5188 -0.8549 0.8549 -0.5188 76.5279 632.7657)" fill="#633636" cx="216.343" cy="294.846" rx="2.303" ry="1.269"/>
		
			<ellipse transform="matrix(-0.3799 -0.925 0.925 -0.3799 43.8129 613.7024)" fill="#633636" cx="227.6" cy="292.167" rx="2.303" ry="1.27"/>
		
			<ellipse transform="matrix(-0.5948 -0.8039 0.8039 -0.5948 103.7825 672.5286)" fill="#633636" cx="221.399" cy="310.106" rx="2.302" ry="1.27"/>
		
			<ellipse transform="matrix(-0.5945 -0.8041 0.8041 -0.5945 128.3559 625.2141)" fill="#633636" cx="221.818" cy="280.244" rx="2.302" ry="1.27"/>
		
			<ellipse transform="matrix(-0.7527 -0.6583 0.6583 -0.7527 230.6127 654.6282)" fill="#633636" cx="238.249" cy="284.004" rx="2.302" ry="1.27"/>
		
			<ellipse transform="matrix(-0.1607 -0.987 0.987 -0.1607 -10.4335 584.4942)" fill="#633636" cx="243.291" cy="296.683" rx="2.303" ry="1.27"/>
		
			<ellipse transform="matrix(-0.5116 -0.8592 0.8592 -0.5116 131.3772 666.5089)" fill="#633636" cx="255.111" cy="295.917" rx="2.304" ry="1.27"/>
		
			<ellipse transform="matrix(-0.7272 -0.6865 0.6865 -0.7272 213.9723 701.9222)" fill="#633636" cx="246.477" cy="308.439" rx="2.304" ry="1.27"/>
		
			<ellipse transform="matrix(-0.7276 -0.686 0.686 -0.7276 191.0711 687.1835)" fill="#633636" cx="231.977" cy="305.654" rx="2.303" ry="1.27"/>
		
			<ellipse transform="matrix(-0.5038 -0.8638 0.8638 -0.5038 74.38 678.8805)" fill="#633636" cx="232.175" cy="318.077" rx="2.303" ry="1.27"/>
	</g>
</g>
<g id="strawberry-2">
	<g>
		<path fill="#DF4D4E" d="M279.678,221.196c3.117-6.426,0.175-15.274-0.532-21.911c-0.978-9.176,0.344-19.556-8.542-23.867
			c-8.887-4.31-16.897,1.463-24.801,6.334c-5.713,3.521-13.971,8.298-17.088,14.724c-7.426,15.312,2.013,22.159,17.325,29.586
			C261.352,233.489,272.251,236.507,279.678,221.196z"/>
		
			<ellipse transform="matrix(0.5597 -0.8287 0.8287 0.5597 -41.2614 290.7406)" fill="#633636" cx="252.975" cy="184.2" rx="2.584" ry="1.425"/>
		
			<ellipse transform="matrix(0.6814 -0.7319 0.7319 0.6814 -59.149 252.9441)" fill="#633636" cx="260.978" cy="194.416" rx="2.583" ry="1.424"/>
		
			<ellipse transform="matrix(0.4817 -0.8764 0.8764 0.4817 -47.915 311.9799)" fill="#633636" cx="239.779" cy="196.496" rx="2.582" ry="1.425"/>
		
			<ellipse transform="matrix(0.4817 -0.8763 0.8763 0.4817 -20.161 331.81)" fill="#633636" cx="270.429" cy="182.949" rx="2.583" ry="1.425"/>
		
			<ellipse transform="matrix(0.2832 -0.9591 0.9591 0.2832 3.4033 407.4757)" fill="#633636" cx="274.29" cy="201.461" rx="2.583" ry="1.425"/>
		
			<ellipse transform="matrix(0.8295 -0.5585 0.5585 0.8295 -73.7283 183.541)" fill="#633636" cx="263.745" cy="212.525" rx="2.583" ry="1.425"/>
		
			<ellipse transform="matrix(0.5667 -0.8239 0.8239 0.5667 -67.7096 319.6339)" fill="#633636" cx="270.05" cy="224.195" rx="2.583" ry="1.425"/>
		
			<ellipse transform="matrix(0.3197 -0.9475 0.9475 0.3197 -37.3992 390.5093)" fill="#633636" cx="253.237" cy="221.298" rx="2.583" ry="1.424"/>
		
			<ellipse transform="matrix(0.3196 -0.9475 0.9475 0.3196 -24.8621 375.83)" fill="#633636" cx="249.275" cy="205.228" rx="2.583" ry="1.425"/>
		
			<ellipse transform="matrix(0.5743 -0.8187 0.8187 0.5743 -72.1301 283.7606)" fill="#633636" cx="236.763" cy="211.231" rx="2.583" ry="1.425"/>
	</g>
</g>
<g id="strawberry-1">
	<g>
		<path fill="#DF4D4E" d="M269.724,152.922c-1.947-6.265-9.477-10.347-14.119-14.352c-6.419-5.537-12.054-13.323-20.717-10.631
			c-8.664,2.693-10.408,11.595-12.646,19.824c-1.618,5.949-4.151,14.337-2.205,20.602c4.64,14.928,15.268,13.588,30.195,8.949
			C265.161,172.673,274.363,167.851,269.724,152.922z"/>
		
			<ellipse transform="matrix(-0.1582 -0.9874 0.9874 -0.1582 121.7101 393.5183)" fill="#633636" cx="228.593" cy="144.88" rx="2.373" ry="1.309"/>
		<ellipse fill="#633636" cx="240.379" cy="146.708" rx="1.308" ry="2.373"/>
		
			<ellipse transform="matrix(-0.2476 -0.9689 0.9689 -0.2476 127.4009 421.7808)" fill="#633636" cx="227.467" cy="161.424" rx="2.372" ry="1.309"/>
		
			<ellipse transform="matrix(-0.2474 -0.9689 0.9689 -0.2474 169.777 398.1017)" fill="#633636" cx="239.492" cy="133.117" rx="2.372" ry="1.309"/>
		
			<ellipse transform="matrix(-0.449 -0.8935 0.8935 -0.449 239.795 434.015)" fill="#633636" cx="253.719" cy="143.071" rx="2.373" ry="1.308"/>
		
			<ellipse transform="matrix(0.2237 -0.9747 0.9747 0.2237 43.7381 369.1683)" fill="#633636" cx="253.607" cy="157.128" rx="2.373" ry="1.309"/>
		
			<ellipse transform="matrix(-0.15 -0.9887 0.9887 -0.15 145.7851 447.2914)" fill="#633636" cx="265.167" cy="160.978" rx="2.373" ry="1.309"/>
		
			<ellipse transform="matrix(-0.4148 -0.9099 0.9099 -0.4148 202.3311 469.315)" fill="#633636" cx="252.085" cy="169.593" rx="2.373" ry="1.309"/>
		
			<ellipse transform="matrix(-0.415 -0.9098 0.9098 -0.415 191.8552 445.993)" fill="#633636" cx="239.311" cy="161.316" rx="2.373" ry="1.309"/>
		
			<ellipse transform="matrix(-0.1407 -0.99 0.99 -0.1407 96.2538 429.9388)" fill="#633636" cx="234.7" cy="173.2" rx="2.373" ry="1.308"/>
	</g>
</g>
</svg>
