<svg version="1.1" xmlns="http://www.w3.org/2000/svg" xmlns:xlink="http://www.w3.org/1999/xlink" x="0px" y="0px" width="500px"
	 height="500px" viewBox="0 0 500 500" enable-background="new 0 0 500 500" xml:space="preserve">
<g id="stone-pillar-left">
	<polygon fill="#646470" points="200.472,179.561 172.528,173.861 141.551,167.544 108.343,230.943 70.38,338.063 159.222,375.407 
		237.298,338.063 	"/>
	<polygon fill="#84848C" points="159.222,375.407 70.38,338.063 108.343,230.943 137.818,174.669 168.754,189.943 162.683,245.838 	
		"/>
	<polygon fill="#74747C" points="162.683,245.838 168.754,189.943 206.067,203.644 214.761,241.061 237.298,338.063 
		159.222,375.407 	"/>
</g>
<g id="stone-pillar-right">
	<polygon fill="#646470" points="396.421,246.787 371.885,197.066 350.06,210.069 318.111,203.553 274.484,338.063 353.805,381.589 
		429.618,338.063 	"/>
	<polygon fill="#84848C" points="353.805,381.589 429.618,338.063 400.123,253.575 374.88,204.06 348.43,219.475 	"/>
	<polygon fill="#74747C" points="310.883,225.839 348.43,219.475 353.805,381.589 274.484,338.063 	"/>
</g>
<g id="stone-top">
	<polygon fill="#646470" points="241.15,118.411 109.725,127.731 124.56,164.079 350.06,210.069 384.923,189.299 404.949,152.369 	
		"/>
	<polygon fill="#84848C" points="241.15,118.411 404.949,152.369 347.147,169.679 109.725,127.731 	"/>
	<polygon fill="#74747C" points="347.147,169.679 404.949,152.369 384.375,189.625 347.129,211.201 	"/>
</g>
</svg>
