<svg version="1.1" id="Calque_1" xmlns="http://www.w3.org/2000/svg" xmlns:xlink="http://www.w3.org/1999/xlink" x="0px" y="0px"
	 width="500px" height="500px" viewBox="0 0 500 500" enable-background="new 0 0 500 500" xml:space="preserve">
<path fill="#DEF1F9" d="M320.518,169.712c-24.047-57.087-67.165-103.398-73.646-103.398c-6.482,0-50.617,46.311-73.579,103.398
	c-36.89,91.716-56.301,211.248-56.301,211.248s37.761,16.294,68.759,32.242c29.708,15.285,52.513,30.252,61.121,30.252
	s30.586-14.967,61.756-30.251c32.523-15.948,74.102-32.243,74.102-32.243S359.149,261.429,320.518,169.712z"/>
<path fill="#CEE3EA" d="M320.518,169.712c-24.047-57.087-67.165-103.398-73.646-103.398c0,26.247,0,365.149,0,377.141
	c8.607,0,30.586-14.967,61.756-30.251c32.523-15.948,74.102-32.243,74.102-32.243S359.149,261.429,320.518,169.712z"/>
<polygon fill="#FAD9D0" points="246.871,235.563 238.226,253.817 222.331,265.127 246.871,289.471 "/>
<polygon fill="#F7C9BA" points="246.963,235.563 255.608,253.817 271.503,265.127 246.963,289.471 "/>
<path fill="#F7E563" d="M246.871,56.229c-50.714,0-91.826,11.083-91.826,24.755s41.112,29.914,91.826,29.914
	s91.825-16.242,91.825-29.914S297.585,56.229,246.871,56.229z M246.871,96.406c-40.137,0-72.675-8.51-72.675-19.007
	c0-10.497,32.538-19.006,72.675-19.006c40.137,0,72.675,8.51,72.675,19.006C319.546,87.896,287.008,96.406,246.871,96.406z"/>
<path fill="#FAD9D0" d="M290.564,173.04c0-24.131-38.901-49.742-43.693-49.742c-4.792,0-43.693,25.611-43.693,49.742
	c0,24.131,19.563,43.69,43.693,43.69S290.564,197.171,290.564,173.04z"/>
<path fill="#F7C9BA" d="M290.564,166.811c0-24.131-38.901-49.742-43.693-49.742c-4.792,0-43.693,25.611-43.693,49.742
	s19.563,43.69,43.693,43.69S290.564,190.942,290.564,166.811z"/>
<path fill="#FAD9D0" d="M290.564,173.04c0-24.131-38.901-49.742-43.693-49.742c-4.792,0-43.693,25.611-43.693,49.742
	c0,24.131,19.563,43.69,43.693,43.69S290.564,197.171,290.564,173.04z"/>
<g>
	<g>
		<path fill="none" d="M237.801,170.376c0,3.505-5.17,6.347-11.549,6.347c-6.378,0-11.549-2.841-11.549-6.347"/>
		<path fill="#604A45" d="M236.353,170.765c-0.996,8.131-19.209,7.323-20.201-0.776c-0.008-0.067-2.938,0.443-2.897,0.776
			c1.15,9.4,24.872,8.405,25.996-0.776C239.229,170.158,236.419,170.221,236.353,170.765L236.353,170.765z"/>
	</g>
</g>
<g>
	<g>
		<path fill="none" d="M278.799,170.376c0,3.505-5.172,6.347-11.549,6.347c-6.379,0-11.55-2.841-11.55-6.347"/>
		<path fill="#604A45" d="M277.35,170.765c-0.995,8.131-19.209,7.323-20.2-0.776c-0.009-0.067-2.938,0.443-2.898,0.776
			c1.151,9.4,24.872,8.405,25.997-0.776C280.227,170.158,277.417,170.221,277.35,170.765L277.35,170.765z"/>
	</g>
</g>
<path fill="#ED8888" d="M252.342,198.572c0,0-2.449-6.474-5.471-6.474s-5.471,6.474-5.471,6.474s2.449,6.475,5.471,6.475
	S252.342,198.572,252.342,198.572z"/>
<polygon fill="#F7FBFC" points="224.808,260.869 246.963,283.023 246.429,367.201 203.077,271.215 "/>
<polygon fill="#E8EAEA" points="269.683,260.869 246.871,283.681 246.371,372.012 291.414,271.215 "/>
<polygon fill="#83BFDD" points="220.35,261.165 174.483,277.304 247.813,413.203 246.871,356.296 "/>
<polygon fill="#DEF1F9" points="181.294,218.405 246.871,404.426 246.871,439.533 125.218,365.921 "/>
<polygon fill="#81B3C6" points="273.152,261.165 319.02,277.304 245.689,413.203 246.631,356.296 "/>
<polygon fill="#CEE3EA" points="310.982,218.405 245.405,404.426 245.405,439.533 367.059,365.921 "/>
</svg>
