<svg version="1.1" id="Calque_1" xmlns="http://www.w3.org/2000/svg" xmlns:xlink="http://www.w3.org/1999/xlink" x="0px" y="0px"
	 width="500px" height="500px" viewBox="0 0 500 500" enable-background="new 0 0 500 500" xml:space="preserve">
<g>
	<g>
		<circle fill="#3C3C44" cx="250" cy="250.001" r="122.539"/>
	</g>
	<g>
		<circle fill="#3C3C44" cx="250" cy="250.001" r="114.538"/>
	</g>
	<g>
		<path fill="#4E4E4E" d="M310.035,345.354c-11.288-21.662-33.923-36.462-60.035-36.46l0,0
			c-26.115-0.002-48.749,14.798-60.039,36.46l0,0l-1.284,2.468l-2.315-1.539c-12.838-8.525-23.864-19.556-32.385-32.397l0,0
			l-1.535-2.315l2.463-1.284c21.659-11.29,36.454-33.922,36.454-60.032l0,0c0-26.098-14.779-48.72-36.419-60.014l0,0l-2.463-1.288
			l1.537-2.313c8.523-12.827,19.545-23.843,32.376-32.359l0,0l2.313-1.536l1.286,2.461c11.298,21.635,33.916,36.41,60.01,36.408l0,0
			c26.091,0.002,48.708-14.772,60.007-36.408l0,0l1.286-2.461l2.313,1.536c12.832,8.517,23.852,19.532,32.377,32.359l0,0
			l1.537,2.313l-2.463,1.288c-21.642,11.294-36.421,33.916-36.419,60.014l0,0c-0.002,26.11,14.794,48.742,36.454,60.032l0,0
			l2.465,1.282l-1.537,2.317c-8.523,12.842-19.547,23.872-32.385,32.397l0,0l-2.317,1.539L310.035,345.354L310.035,345.354z
			 M186.874,340.58c12.508-21.906,36.089-36.685,63.127-36.687l0,0c27.036,0.002,50.616,14.78,63.124,36.686l0,0
			c10.576-7.407,19.791-16.625,27.193-27.203l0,0c-21.904-12.513-36.678-36.09-36.68-63.122l0,0
			c0.002-27.02,14.761-50.586,36.644-63.101l0,0c-7.403-10.565-16.616-19.773-27.187-27.173l0,0
			c-12.517,21.876-36.08,36.632-63.094,36.634l0,0c-27.016-0.002-50.58-14.758-63.097-36.634l0,0
			c-10.57,7.399-19.783,16.607-27.186,27.173l0,0c21.882,12.515,36.639,36.081,36.641,63.101l0,0
			c-0.002,27.032-14.777,50.61-36.677,63.122l0,0C167.084,323.954,176.299,333.173,186.874,340.58L186.874,340.58z"/>
	</g>
	<g>
		<path fill="#4E4E4E" d="M191.334,250.292c0.002-32.402,26.264-58.664,58.666-58.666l0,0c32.4,0.002,58.664,26.264,58.666,58.666
			l0,0c-0.002,32.4-26.266,58.664-58.666,58.666l0,0C217.598,308.956,191.336,282.692,191.334,250.292L191.334,250.292z
			 M212.052,212.344c-9.717,9.72-15.718,23.121-15.718,37.948l0,0c0,14.827,6,28.227,15.718,37.947l0,0
			c9.72,9.716,23.121,15.716,37.948,15.719l0,0c14.827-0.003,28.227-6.003,37.947-15.719l0,0
			c9.716-9.721,15.716-23.12,15.716-37.947l0,0c0-14.827-6-28.228-15.716-37.948l0,0c-9.721-9.715-23.12-15.718-37.947-15.718l0,0
			C235.173,196.626,221.772,202.629,212.052,212.344L212.052,212.344z"/>
	</g>
	<g>
		<g>
			<path fill="#4E4E4E" d="M289.878,210.608c-1.286-1.281-1.812-3.067-1.805-4.953l0,0c0.087-6.511,5.574-15.825,14.268-24.595l0,0
				c8.771-8.696,18.085-14.185,24.598-14.27l0,0c1.886-0.006,3.672,0.521,4.953,1.803l0,0c1.279,1.281,1.805,3.063,1.798,4.951l0,0
				c-0.085,6.511-5.571,15.825-14.265,24.598l0,0l-1.062-1.059l1.059,1.059c-8.772,8.693-18.084,14.18-24.595,14.268l0,0
				c-0.008,0-0.015,0-0.022,0l0,0C292.927,212.409,291.152,211.883,289.878,210.608L289.878,210.608z M304.463,183.182
				c-8.409,8.33-13.477,17.643-13.389,22.473l0,0c0.006,1.383,0.354,2.26,0.924,2.831l0,0c0.567,0.567,1.445,0.916,2.829,0.922l0,0
				c4.83,0.087,14.14-4.98,22.476-13.386l0,0l-0.001-0.001c8.411-8.334,13.475-17.646,13.39-22.477l0,0
				c-0.007-1.383-0.359-2.266-0.923-2.829l0,0c-0.568-0.569-1.449-0.92-2.83-0.926l0,0c-0.04-0.001-0.08-0.001-0.121-0.001l0,0
				C321.951,169.788,312.724,174.839,304.463,183.182L304.463,183.182z"/>
		</g>
		<g>
			<polygon fill="#4E4E4E" points="289.236,209.334 330.128,168.942 331.531,170.364 290.642,210.758 289.236,209.334 			"/>
		</g>
		<g>
			<polygon fill="#4E4E4E" points="317.313,183.059 315.516,172.02 317.489,171.698 319.059,181.328 328.795,182.997 
				328.457,184.967 317.313,183.059 			"/>
		</g>
		<g>
			<polygon fill="#4E4E4E" points="309.129,191.22 305.855,178.886 307.787,178.374 310.767,189.594 322.119,192.7 321.589,194.629 
				309.129,191.22 			"/>
		</g>
		<g>
			<polygon fill="#4E4E4E" points="300.947,199.414 298.478,187.796 300.434,187.38 302.638,197.74 313.116,200.057 312.681,202.01 
				300.947,199.414 			"/>
		</g>
	</g>
	<g>
		<g>
			<path fill="#4E4E4E" d="M169.017,331.261c-1.281-1.281-1.809-3.065-1.803-4.951l0,0c0.087-6.51,5.576-15.823,14.269-24.594l0,0
				c8.772-8.698,18.085-14.186,24.598-14.272l0,0c1.888-0.006,3.671,0.523,4.951,1.805l0,0c1.281,1.279,1.807,3.062,1.8,4.948l0,0
				c-0.085,6.513-5.572,15.826-14.267,24.601l0,0c-8.774,8.69-18.085,14.179-24.596,14.267l0,0c-0.011,0-0.022,0-0.033,0l0,0
				C172.063,333.063,170.291,332.536,169.017,331.261L169.017,331.261z M183.605,303.837c-8.411,8.329-13.478,17.643-13.39,22.473
				l0,0c0.006,1.382,0.355,2.26,0.924,2.831l0,0c0.567,0.566,1.448,0.916,2.831,0.922l0,0c4.83,0.087,14.142-4.979,22.474-13.388
				l0,0c8.41-8.332,13.475-17.646,13.39-22.479l0,0c-0.006-1.381-0.357-2.263-0.922-2.828l0,0c-0.569-0.566-1.449-0.918-2.83-0.926
				l0,0c-0.041-0.001-0.081-0.001-0.121-0.001l0,0C201.094,290.441,191.866,295.494,183.605,303.837L183.605,303.837z"/>
		</g>
		<g>
			<polygon fill="#4E4E4E" points="168.378,329.989 209.268,289.597 210.675,291.021 169.784,331.412 168.378,329.989 			"/>
		</g>
		<g>
			<polygon fill="#4E4E4E" points="196.454,303.713 194.656,292.675 196.63,292.352 198.201,301.984 207.938,303.65 
				207.598,305.623 196.454,303.713 			"/>
		</g>
		<g>
			<path fill="#4E4E4E" d="M188.271,311.874l-3.273-12.331l1.933-0.514l2.979,11.221l11.35,3.106l-0.529,1.927L188.271,311.874
				L188.271,311.874z M184.997,299.541l0,0.002h0V299.541L184.997,299.541z"/>
		</g>
		<g>
			<polygon fill="#4E4E4E" points="180.089,320.067 177.617,308.451 177.619,308.451 179.575,308.034 181.778,318.394 
				192.256,320.713 191.822,322.664 180.089,320.067 			"/>
		</g>
	</g>
	<g>
		<g>
			<path fill="#4E4E4E" d="M326.836,333.914c-6.511-0.087-15.823-5.572-24.597-14.266l0,0l1.062-1.062l1.06-1.062
				c8.332,8.411,17.645,13.475,22.476,13.388l0,0c1.381-0.007,2.262-0.355,2.831-0.92l0,0c0.566-0.569,0.916-1.45,0.922-2.833l0,0
				c0.087-4.833-4.98-14.147-13.39-22.474l0,0c-8.33-8.411-17.645-13.477-22.476-13.392l0,0c-1.386,0.008-2.262,0.357-2.829,0.926
				l0,0c-0.566,0.569-0.918,1.445-0.924,2.829l0,0c-0.087,4.828,4.979,14.142,13.39,22.476l0,0l-1.06,1.062l-1.062,1.059
				c-8.695-8.774-14.183-18.087-14.27-24.596l0,0c-0.006-1.888,0.523-3.672,1.801-4.947l0,0c1.281-1.29,3.067-1.813,4.953-1.807l0,0
				c6.513,0.087,15.825,5.574,24.596,14.268l0,0c8.694,8.769,14.184,18.083,14.271,24.597l0,0c0.006,1.886-0.52,3.672-1.805,4.955
				l0,0c-1.274,1.27-3.043,1.799-4.916,1.799l0,0C326.858,333.914,326.847,333.914,326.836,333.914L326.836,333.914z"/>
		</g>
		<g>
			<polygon fill="#4E4E4E" points="289.623,290.863 291.048,289.457 331.438,330.351 330.017,331.756 289.623,290.863 			"/>
		</g>
		<g>
			<polygon fill="#4E4E4E" points="315.414,328.68 317.321,317.537 328.362,315.738 328.684,317.712 319.053,319.281 
				317.386,329.018 315.414,328.68 			"/>
		</g>
		<g>
			<polygon fill="#4E4E4E" points="305.754,321.813 309.162,309.353 321.495,306.076 321.498,306.078 322.008,308.009 
				310.786,310.991 307.683,322.342 305.754,321.813 			"/>
		</g>
		<g>
			<polygon fill="#4E4E4E" points="298.372,312.902 300.968,301.171 312.586,298.699 312.586,298.701 313.002,300.656 
				302.64,302.859 300.325,313.336 298.372,312.902 			"/>
		</g>
	</g>
	<g>
		<g>
			<path fill="#4E4E4E" d="M206.183,213.056c-6.512-0.088-15.826-5.575-24.599-14.269l0,0l1.062-1.06l1.06-1.062
				c8.333,8.411,17.646,13.476,22.477,13.39l0,0c1.381-0.006,2.262-0.358,2.831-0.923l0,0c0.565-0.567,0.917-1.447,0.923-2.831l0,0
				c0.086-4.832-4.981-14.144-13.39-22.475l0,0c-8.332-8.409-17.646-13.477-22.477-13.391l0,0c-1.381,0.006-2.262,0.356-2.829,0.925
				l0,0c-0.567,0.567-0.917,1.447-0.923,2.828l0,0c-0.086,4.832,4.977,14.144,13.388,22.475l0,0l-1.06,1.062l-1.062,1.06
				c-8.693-8.773-14.18-18.085-14.266-24.597l0,0c-0.006-1.887,0.52-3.669,1.801-4.949l0,0c1.279-1.285,3.066-1.811,4.951-1.805l0,0
				c6.512,0.086,15.826,5.575,24.599,14.268l0,0c8.691,8.771,14.183,18.085,14.269,24.597l0,0c0.006,1.887-0.52,3.672-1.803,4.953
				l0,0c-1.274,1.272-3.045,1.801-4.918,1.801l0,0C206.205,213.056,206.194,213.056,206.183,213.056L206.183,213.056z"/>
		</g>
		<g>
			<polygon fill="#4E4E4E" points="168.97,170.006 170.393,168.6 210.786,209.489 209.362,210.896 168.97,170.006 			"/>
		</g>
		<g>
			<polygon fill="#4E4E4E" points="194.76,207.819 196.668,196.678 207.708,194.878 208.03,196.852 198.398,198.421 
				196.731,208.159 194.76,207.819 			"/>
		</g>
		<g>
			<polygon fill="#4E4E4E" points="185.099,200.954 188.506,188.494 200.841,185.218 200.841,185.22 201.354,187.151 
				190.133,190.131 187.028,201.481 185.099,200.954 			"/>
		</g>
		<g>
			<polygon fill="#4E4E4E" points="177.718,192.046 180.312,180.312 191.932,177.84 192.348,179.796 181.986,182 179.671,192.479 
				177.718,192.046 			"/>
		</g>
	</g>
	<g>
		<g>
			<path fill="#4E4E4E" d="M234.5,250.001c0.002-8.563,6.939-15.5,15.499-15.501l0,0c8.56,0.002,15.499,6.939,15.501,15.501l0,0
				h-0.002c0,8.56-6.939,15.497-15.499,15.499l0,0C241.439,265.498,234.502,258.562,234.5,250.001L234.5,250.001z M239.499,250.001
				c0.01,5.797,4.702,10.488,10.5,10.5l0,0c5.798-0.012,10.49-4.702,10.5-10.5l0,0c-0.01-5.8-4.702-10.492-10.5-10.502l0,0
				C244.201,239.509,239.509,244.201,239.499,250.001L239.499,250.001z"/>
		</g>
		<g>
			<path fill="#4E4E4E" d="M258.779,219.807c0-10.065-8.779-14.253-8.779-14.253s-8.779,4.188-8.779,14.253S250,238.03,250,238.03
				S258.779,229.872,258.779,219.807z"/>
		</g>
		<g>
			<path fill="#4E4E4E" d="M241.221,280.778c0,10.064,8.779,14.252,8.779,14.252s8.779-4.188,8.779-14.252
				c0-10.066-8.779-18.225-8.779-18.225S241.221,270.712,241.221,280.778z"/>
		</g>
		<g>
			<path fill="#4E4E4E" d="M280.485,259.071c10.065,0,14.253-8.779,14.253-8.779s-4.188-8.779-14.253-8.779
				s-18.224,8.779-18.224,8.779S270.42,259.071,280.485,259.071z"/>
		</g>
		<g>
			<path fill="#4E4E4E" d="M219.515,241.513c-10.065,0-14.253,8.779-14.253,8.779s4.188,8.779,14.253,8.779
				s18.224-8.779,18.224-8.779S229.58,241.513,219.515,241.513z"/>
		</g>
		<g>
			<path fill="#4E4E4E" d="M234.651,222.527c-7.117-7.117-16.286-3.87-16.286-3.87s-3.247,9.169,3.87,16.286
				c7.118,7.117,19.095,6.679,19.095,6.679S241.769,229.646,234.651,222.527z"/>
		</g>
		<g>
			<path fill="#4E4E4E" d="M265.349,278.058c7.117,7.117,16.286,3.869,16.286,3.869s3.247-9.168-3.87-16.285
				c-7.118-7.117-19.095-6.68-19.095-6.68S258.231,270.94,265.349,278.058z"/>
		</g>
		<g>
			<path fill="#4E4E4E" d="M277.765,234.943c7.117-7.117,3.87-16.286,3.87-16.286s-9.169-3.247-16.286,3.87
				c-7.117,7.118-6.679,19.095-6.679,19.095S270.646,242.061,277.765,234.943z"/>
		</g>
		<g>
			<path fill="#4E4E4E" d="M222.235,265.642c-7.117,7.117-3.87,16.285-3.87,16.285s9.169,3.248,16.286-3.869
				s6.679-19.096,6.679-19.096S229.354,258.524,222.235,265.642z"/>
		</g>
	</g>
	<g>
		<path fill="#4E4E4E" d="M132.962,250C132.964,185.36,185.36,132.964,250,132.962l0,0C314.639,132.964,367.036,185.36,367.038,250
			l0,0C367.036,314.639,314.639,367.036,250,367.038l0,0C185.36,367.036,132.964,314.639,132.962,250L132.962,250z M170.776,170.776
			c-20.278,20.283-32.814,48.278-32.814,79.224l0,0c0,30.946,12.536,58.939,32.814,79.221l0,0
			c20.283,20.278,48.276,32.814,79.224,32.814l0,0c30.946,0,58.939-12.536,79.221-32.814l0,0
			c20.278-20.282,32.814-48.275,32.814-79.221l0,0c0-30.946-12.536-58.941-32.814-79.224l0,0
			c-20.282-20.278-48.275-32.814-79.221-32.814l0,0C219.052,137.962,191.059,150.498,170.776,170.776L170.776,170.776z"/>
	</g>
	<g>
		<g>
			<path fill="#4E4E4E" d="M233.591,150.963c-0.144-0.449-0.215-0.673-0.358-1.123c-0.14-0.438,0.453-0.882,1.793-1.256
				c9.726-2.702,20.023-2.733,29.767-0.101c1.1,0.299,1.792,0.573,2.084,0.773c0.29,0.2,0.353,0.548,0.192,1.042
				c-0.243,0.748-0.5,1.178-0.769,1.294c-0.271,0.117-0.779,0.076-1.521-0.089c-2.417-0.536-3.759-0.167-3.969,0.818
				c-2.232,10.46-3.349,15.689-5.582,26.149c-0.117,0.551,0.192,1.064,0.869,1.58c0.436,0.332,0.673,0.6,0.723,0.786
				c0.051,0.187,0.01,0.47-0.111,0.852c-0.105,0.331-0.156,0.496-0.262,0.827c-0.144,0.452-0.268,0.693-0.373,0.723
				c-0.104,0.03-0.339-0.013-0.704-0.112c-4.278-1.163-6.624-1.144-10.886,0.093c-0.407,0.118-0.66,0.031-0.76-0.279
				c-0.33-1.016-0.493-1.648-0.484-1.9c0.009-0.251,0.243-0.53,0.708-0.791c0.836-0.468,1.234-0.963,1.105-1.573
				c-2.181-10.333-3.272-15.5-5.453-25.834c-0.128-0.609-0.415-1.033-0.864-1.258c-0.451-0.226-1.368-0.288-2.727-0.136
				c-0.998,0.112-1.632,0.157-1.88,0.103C233.881,151.498,233.699,151.301,233.591,150.963z"/>
		</g>
	</g>
	<g>
		<g>
			<path fill="#4E4E4E" d="M266.597,349.962c0.144,0.449,0.217,0.675,0.36,1.124c0.141,0.438-0.456,0.884-1.797,1.258
				c-9.727,2.699-20.023,2.735-29.768,0.101c-1.099-0.299-1.791-0.573-2.083-0.773c-0.29-0.199-0.353-0.549-0.192-1.043
				c0.243-0.747,0.502-1.18,0.771-1.296c0.271-0.116,0.778-0.075,1.52,0.09c2.417,0.536,3.757,0.168,3.967-0.817
				c2.232-10.46,3.35-15.688,5.582-26.148c0.118-0.551-0.192-1.065-0.869-1.581c-0.436-0.332-0.67-0.598-0.72-0.784
				c-0.051-0.187-0.014-0.474,0.107-0.855c0.105-0.331,0.158-0.495,0.263-0.826c0.144-0.452,0.267-0.692,0.373-0.722
				c0.105-0.03,0.338,0.013,0.704,0.112c4.28,1.163,6.624,1.145,10.887-0.092c0.407-0.118,0.662-0.033,0.763,0.277
				c0.33,1.016,0.488,1.646,0.479,1.898c-0.01,0.251-0.238,0.532-0.704,0.793c-0.836,0.467-1.235,0.964-1.106,1.573
				c2.182,10.333,3.27,15.501,5.451,25.834c0.129,0.609,0.414,1.032,0.863,1.258c0.45,0.226,1.367,0.287,2.727,0.135
				c0.998-0.112,1.634-0.154,1.882-0.101C266.306,349.43,266.488,349.623,266.597,349.962z"/>
		</g>
	</g>
	<g>
		<g>
			<path fill="#4E4E4E" d="M349.59,233.961c0.449-0.144,0.675-0.214,1.124-0.358c0.438-0.14,0.883,0.452,1.257,1.793
				c2.701,9.726,2.732,20.023,0.102,29.767c-0.299,1.1-0.573,1.792-0.773,2.084c-0.199,0.29-0.549,0.353-1.043,0.192
				c-0.748-0.243-1.179-0.502-1.295-0.771c-0.116-0.271-0.074-0.775,0.091-1.518c0.536-2.417,0.166-3.761-0.819-3.971
				c-10.46-2.232-15.688-3.349-26.149-5.581c-0.551-0.117-1.065,0.192-1.581,0.87c-0.332,0.436-0.6,0.67-0.786,0.72
				c-0.187,0.051-0.47,0.01-0.852-0.111c-0.331-0.105-0.496-0.155-0.827-0.261c-0.452-0.144-0.694-0.267-0.724-0.372
				c-0.03-0.104,0.014-0.337,0.113-0.703c1.163-4.281,1.148-6.625-0.092-10.887c-0.118-0.407-0.033-0.66,0.277-0.761
				c1.017-0.33,1.647-0.493,1.899-0.483c0.251,0.009,0.533,0.244,0.794,0.709c0.468,0.836,0.962,1.233,1.571,1.104
				c10.334-2.181,15.503-3.271,25.836-5.452c0.609-0.129,1.033-0.416,1.259-0.865c0.226-0.451,0.285-1.365,0.133-2.725
				c-0.112-0.998-0.152-1.634-0.099-1.881C349.06,234.251,349.251,234.069,349.59,233.961z"/>
		</g>
	</g>
	<g>
		<g>
			<path fill="#4E4E4E" d="M150.591,266.968c-0.449,0.144-0.674,0.213-1.123,0.356c-0.438,0.141-0.883-0.452-1.258-1.793
				c-2.7-9.727-2.733-20.023-0.101-29.768c0.299-1.099,0.572-1.792,0.773-2.083c0.2-0.29,0.55-0.353,1.044-0.192
				c0.748,0.243,1.178,0.501,1.294,0.77c0.117,0.271,0.076,0.778-0.088,1.52c-0.537,2.417-0.169,3.759,0.816,3.97
				c10.46,2.232,15.69,3.347,26.15,5.58c0.551,0.118,1.064-0.192,1.581-0.87c0.332-0.436,0.6-0.67,0.786-0.72
				c0.187-0.051,0.471-0.014,0.853,0.107c0.331,0.105,0.495,0.158,0.826,0.263c0.452,0.144,0.692,0.268,0.722,0.374
				c0.03,0.105-0.011,0.338-0.111,0.704c-1.163,4.28-1.146,6.621,0.091,10.887c0.118,0.408,0.032,0.662-0.278,0.763
				c-1.016,0.33-1.65,0.49-1.902,0.481c-0.251-0.01-0.528-0.242-0.789-0.708c-0.468-0.836-0.964-1.235-1.573-1.106
				c-10.333,2.182-15.501,3.271-25.835,5.453c-0.609,0.129-1.033,0.416-1.258,0.865c-0.226,0.45-0.288,1.363-0.135,2.723
				c0.112,0.998,0.156,1.638,0.102,1.885C151.125,266.678,150.93,266.859,150.591,266.968z"/>
		</g>
	</g>
</g>
</svg>
