<svg width="20" height="20" viewBox="0 0 20 20" fill="none" xmlns="http://www.w3.org/2000/svg">
<path d="M10 0C4.47917 0 0 4.59205 0 10.252C0 14.7773 2.86458 18.6218 6.83594 19.9834C7.34375 20.0769 7.52604 19.7565 7.52604 19.4895C7.52604 19.2359 7.51302 18.4349 7.51302 17.5806C7.51302 17.5806 4.72656 18.1947 4.14062 16.3659C4.14062 16.3659 3.6849 15.1778 3.03385 14.8708C3.03385 14.8708 2.1224 14.23 3.09896 14.2434C3.09896 14.2434 4.08854 14.3235 4.63542 15.2979C5.50781 16.8731 6.96615 16.4192 7.53906 16.1523C7.63021 15.4982 7.89062 15.0443 8.17708 14.7773C5.95052 14.5237 3.61979 13.6427 3.61979 9.71806C3.61979 8.59675 4.01042 7.68901 4.64844 6.96817C4.54427 6.70119 4.20573 5.65997 4.7526 4.24498C5.58594 3.978 7.5 5.29955 7.5 5.29955C8.29427 5.07261 9.15365 4.95247 10 4.95247C10.8464 4.95247 11.7057 5.07261 12.5 5.29955C12.5 5.29955 14.4141 3.978 15.2474 4.24498C15.7943 5.65997 15.4557 6.70119 15.3516 6.96817C15.9896 7.68901 16.3802 8.59675 16.3802 9.71806C16.3802 13.656 14.0365 14.5237 11.8099 14.7773C12.1745 15.0977 12.487 15.7118 12.487 16.6729C12.487 18.0478 12.474 19.1558 12.474 19.4895C12.474 19.7565 12.6562 20.0769 13.1641 19.9834C17.1354 18.6218 20 14.7773 20 10.252C20 4.59205 15.5208 0 10 0ZM3.78906 14.7239C3.76302 14.7773 3.6849 14.7907 3.61979 14.7506C3.54167 14.7106 3.5026 14.6438 3.52865 14.5904C3.55469 14.5504 3.61979 14.537 3.69792 14.5637C3.77604 14.6038 3.8151 14.6705 3.78906 14.7239ZM4.19271 15.1778C4.14063 15.2312 4.04948 15.2045 3.98437 15.1377C3.91927 15.0577 3.90625 14.9642 3.95833 14.9242C4.01042 14.8708 4.10156 14.8975 4.16667 14.9642C4.23177 15.0443 4.24479 15.1377 4.19271 15.1778ZM4.58333 15.7785C4.53125 15.8185 4.42708 15.7785 4.36198 15.6851C4.29687 15.5916 4.29687 15.4848 4.36198 15.4448C4.42708 15.3914 4.53125 15.4314 4.58333 15.5249C4.64844 15.6183 4.64844 15.7251 4.58333 15.7785ZM5.13021 16.3392C5.07812 16.4059 4.96094 16.3926 4.86979 16.2991C4.77865 16.219 4.7526 16.0989 4.81771 16.0455C4.86979 15.9787 4.98698 15.9921 5.07812 16.0855C5.15625 16.1656 5.18229 16.2858 5.13021 16.3392ZM5.8724 16.6729C5.84635 16.753 5.72917 16.793 5.625 16.753C5.50781 16.7263 5.42969 16.6328 5.45573 16.5527C5.48177 16.4726 5.59896 16.4326 5.70312 16.4593C5.82031 16.4993 5.89844 16.5928 5.8724 16.6729ZM6.69271 16.7396C6.69271 16.8197 6.60156 16.8865 6.48438 16.8865C6.35417 16.8998 6.26302 16.8331 6.26302 16.7396C6.26302 16.6595 6.35417 16.5928 6.47135 16.5928C6.58854 16.5794 6.69271 16.6462 6.69271 16.7396ZM7.44792 16.6061C7.46094 16.6862 7.38281 16.7663 7.26562 16.793C7.14844 16.8197 7.04427 16.7663 7.03125 16.6862C7.01823 16.5928 7.09635 16.5127 7.21354 16.486C7.33073 16.4726 7.4349 16.526 7.44792 16.6061Z" fill="#ff5848"/>
</svg>
