<?xml version="1.0" encoding="utf-8"?>
<!-- Generator: Adobe Illustrator 13.0.0, SVG Export Plug-In . SVG Version: 6.00 Build 14948)  -->
<!DOCTYPE svg PUBLIC "-//W3C//DTD SVG 1.1//EN" "http://www.w3.org/Graphics/SVG/1.1/DTD/svg11.dtd">
<svg version="1.1" id="Calque_1" xmlns="http://www.w3.org/2000/svg" xmlns:xlink="http://www.w3.org/1999/xlink" x="0px" y="0px"
	 width="500px" height="500px" viewBox="0 0 500 500" enable-background="new 0 0 500 500" xml:space="preserve">
<g>
	<circle fill="#EA9459" cx="250" cy="250" r="122.538"/>
</g>
<g>
	<circle fill="#F8B469" cx="250" cy="250" r="114.538"/>
</g>
<g>
	<path fill="#FCC781" d="M186.362,346.284c-12.838-8.527-23.862-19.558-32.385-32.399l0,0l-1.536-2.317l2.463-1.282
		c21.661-11.29,36.456-33.922,36.454-60.032l0,0c0.002-26.096-14.776-48.718-36.416-60.014l0,0l-2.465-1.286l1.54-2.313
		c8.523-12.828,19.544-23.843,32.374-32.362l0,0l2.313-1.535l1.286,2.461c11.298,21.636,33.918,36.411,60.01,36.411l0,0
		c26.091,0,48.711-14.775,60.009-36.411l0,0l1.283-2.461l2.315,1.535c12.83,8.519,23.852,19.535,32.375,32.362l0,0l1.539,2.313
		l-2.465,1.286c-21.642,11.296-36.419,33.918-36.417,60.014l0,0c-0.002,26.11,14.794,48.742,36.452,60.032l0,0l2.465,1.282
		l-1.535,2.317c-8.522,12.842-19.547,23.872-32.385,32.399l0,0l-2.317,1.537l-1.283-2.465
		c-11.288-21.665-33.922-36.465-60.037-36.463l0,0c-26.115-0.002-48.749,14.798-60.039,36.463l0,0l-1.283,2.467L186.362,346.284
		L186.362,346.284z M313.125,340.58c10.574-7.408,19.789-16.628,27.192-27.205l0,0c-21.902-12.512-36.677-36.09-36.679-63.122l0,0
		c0.002-27.018,14.758-50.585,36.641-63.101l0,0c-7.403-10.567-16.615-19.775-27.185-27.172l0,0
		c-12.516,21.878-36.08,36.631-63.095,36.633l0,0c-27.016-0.002-50.582-14.755-63.096-36.633l0,0
		c-10.569,7.398-19.781,16.605-27.185,27.172l0,0c21.881,12.515,36.639,36.083,36.641,63.101l0,0
		c-0.002,27.034-14.777,50.61-36.679,63.122l0,0c7.403,10.577,16.618,19.797,27.192,27.205l0,0
		c12.509-21.908,36.088-36.686,63.126-36.688l0,0C277.037,303.895,300.617,318.672,313.125,340.58L313.125,340.58z"/>
</g>
<g>
	<path fill="#FCC781" d="M191.334,250.292c0.002-32.402,26.264-58.664,58.666-58.666l0,0c32.4,0.002,58.664,26.264,58.666,58.666
		l0,0c-0.002,32.4-26.266,58.664-58.666,58.666l0,0C217.598,308.956,191.336,282.692,191.334,250.292L191.334,250.292z
		 M212.052,212.344c-9.717,9.72-15.718,23.121-15.718,37.948l0,0c0,14.827,6,28.227,15.718,37.947l0,0
		c9.72,9.716,23.121,15.716,37.948,15.719l0,0c14.827-0.003,28.227-6.003,37.947-15.719l0,0c9.716-9.721,15.716-23.12,15.716-37.947
		l0,0c0-14.827-6-28.228-15.716-37.948l0,0c-9.721-9.715-23.12-15.718-37.947-15.718l0,0
		C235.173,196.626,221.772,202.629,212.052,212.344L212.052,212.344z"/>
</g>
<g>
	<g>
		<path fill="#FCC781" d="M289.878,210.608c-1.286-1.281-1.812-3.067-1.805-4.953l0,0c0.087-6.511,5.574-15.825,14.268-24.595l0,0
			c8.771-8.696,18.085-14.185,24.598-14.27l0,0c1.886-0.006,3.672,0.521,4.953,1.803l0,0c1.279,1.281,1.805,3.063,1.798,4.951l0,0
			c-0.085,6.511-5.571,15.825-14.265,24.598l0,0l-1.062-1.059l1.059,1.059c-8.772,8.693-18.084,14.18-24.595,14.268l0,0
			c-0.008,0-0.015,0-0.022,0l0,0C292.927,212.409,291.152,211.883,289.878,210.608L289.878,210.608z M304.463,183.182
			c-8.409,8.33-13.477,17.643-13.389,22.473l0,0c0.006,1.383,0.354,2.26,0.924,2.831l0,0c0.567,0.567,1.445,0.916,2.829,0.922l0,0
			c4.83,0.087,14.14-4.98,22.476-13.386l0,0l-0.001-0.001c8.411-8.334,13.475-17.646,13.39-22.477l0,0
			c-0.007-1.383-0.359-2.266-0.923-2.829l0,0c-0.568-0.569-1.449-0.92-2.83-0.926l0,0c-0.04-0.001-0.08-0.001-0.121-0.001l0,0
			C321.951,169.788,312.724,174.839,304.463,183.182L304.463,183.182z"/>
	</g>
	<g>
		<polygon fill="#FCC781" points="289.236,209.334 330.128,168.942 331.531,170.364 290.642,210.758 289.236,209.334 		"/>
	</g>
	<g>
		<polygon fill="#FCC781" points="317.313,183.059 315.516,172.02 317.489,171.698 319.059,181.328 328.795,182.997 
			328.457,184.967 317.313,183.059 		"/>
	</g>
	<g>
		<polygon fill="#FCC781" points="309.129,191.22 305.855,178.886 307.787,178.374 310.767,189.594 322.119,192.7 321.589,194.629 
			309.129,191.22 		"/>
	</g>
	<g>
		<polygon fill="#FCC781" points="300.947,199.414 298.478,187.796 300.434,187.38 302.638,197.74 313.116,200.057 312.681,202.01 
			300.947,199.414 		"/>
	</g>
</g>
<g>
	<g>
		<path fill="#FCC781" d="M169.017,331.263c-1.281-1.283-1.807-3.067-1.801-4.95l0,0c0.085-6.513,5.574-15.826,14.267-24.597l0,0
			c8.772-8.698,18.085-14.186,24.598-14.272l0,0c1.888-0.006,3.671,0.523,4.951,1.805l0,0c1.281,1.279,1.807,3.062,1.8,4.948l0,0
			c-0.085,6.513-5.572,15.826-14.267,24.601l0,0c-8.771,8.69-18.085,14.179-24.596,14.267l0,0c-0.011,0-0.022,0-0.033,0l0,0
			C172.063,333.063,170.291,332.536,169.017,331.263L169.017,331.263z M183.604,303.837c-8.409,8.329-13.474,17.641-13.388,22.476
			l0,0c0.006,1.381,0.355,2.259,0.924,2.828l0,0c0.567,0.566,1.448,0.916,2.831,0.922l0,0c4.83,0.087,14.142-4.979,22.474-13.388
			l0,0c8.41-8.332,13.475-17.646,13.39-22.479l0,0c-0.006-1.381-0.357-2.263-0.922-2.828l0,0c-0.569-0.566-1.449-0.918-2.83-0.924
			l0,0c-0.041-0.001-0.083-0.001-0.124-0.001l0,0C201.091,290.443,191.864,295.495,183.604,303.837L183.604,303.837z"/>
	</g>
	<g>
		<polygon fill="#FCC781" points="168.377,329.988 209.269,289.598 210.674,291.02 169.783,331.41 168.377,329.988 		"/>
	</g>
	<g>
		<polygon fill="#FCC781" points="196.454,303.713 194.656,292.675 196.63,292.352 198.199,301.982 207.938,303.65 207.598,305.623 
			196.454,303.713 		"/>
	</g>
	<g>
		<polygon fill="#FCC781" points="188.271,311.874 184.997,299.541 186.931,299.027 189.908,310.25 201.26,313.356 200.731,315.283 
			188.271,311.874 		"/>
	</g>
	<g>
		<polygon fill="#FCC781" points="180.089,320.067 177.617,308.451 177.619,308.451 179.575,308.034 181.778,318.394 
			192.256,320.713 191.824,322.664 180.089,320.067 		"/>
	</g>
</g>
<g>
	<g>
		<path fill="#FCC781" d="M326.837,333.913c-6.511-0.088-15.825-5.572-24.599-14.267l0,0l1.062-1.061l1.062-1.062
			c8.332,8.411,17.643,13.475,22.476,13.388l0,0c1.381-0.007,2.262-0.355,2.829-0.92l0,0c0.566-0.569,0.918-1.45,0.924-2.833l0,0
			c0.087-4.831-4.982-14.146-13.39-22.474l0,0c-8.332-8.411-17.645-13.477-22.476-13.392l0,0c-1.385,0.008-2.262,0.356-2.829,0.926
			l0,0c-0.568,0.569-0.918,1.448-0.924,2.829l0,0c-0.087,4.83,4.977,14.141,13.39,22.476l0,0l-1.062,1.062l-1.062,1.061
			c-8.695-8.776-14.181-18.089-14.268-24.598l0,0c-0.006-1.888,0.521-3.672,1.801-4.947l0,0c1.279-1.29,3.067-1.813,4.953-1.807l0,0
			c6.511,0.087,15.825,5.574,24.597,14.268l0,0c8.691,8.771,14.183,18.086,14.268,24.597l0,0c0.008,1.888-0.52,3.672-1.803,4.955
			l0,0c-1.276,1.27-3.043,1.799-4.916,1.799l0,0C326.859,333.913,326.848,333.913,326.837,333.913L326.837,333.913z"/>
	</g>
	<g>
		<polygon fill="#FCC781" points="289.625,290.862 291.047,289.458 331.439,330.35 330.018,331.755 289.625,290.862 		"/>
	</g>
	<g>
		<polygon fill="#FCC781" points="315.413,328.679 317.323,317.536 328.361,315.737 328.363,315.737 328.683,317.711 
			319.052,319.28 317.387,329.017 315.413,328.679 		"/>
	</g>
	<g>
		<polygon fill="#FCC781" points="305.754,321.811 309.161,309.352 321.495,306.077 321.497,306.077 322.007,308.01 
			310.787,310.988 307.683,322.341 305.754,321.811 		"/>
	</g>
	<g>
		<polygon fill="#FCC781" points="298.372,312.902 300.968,301.171 312.586,298.699 313.002,300.654 302.64,302.859 
			300.325,313.336 298.372,312.902 		"/>
	</g>
</g>
<g>
	<g>
		<path fill="#FCC781" d="M206.181,213.056c-6.51-0.088-15.824-5.575-24.597-14.269l0,0l1.062-1.06l1.06-1.062
			c8.332,8.411,17.644,13.476,22.475,13.39l0,0c1.383-0.006,2.262-0.358,2.831-0.923l0,0c0.567-0.567,0.917-1.449,0.923-2.831l0,0
			c0.086-4.832-4.979-14.144-13.388-22.475l0,0c-8.333-8.411-17.646-13.477-22.477-13.391l0,0c-1.381,0.006-2.262,0.356-2.829,0.925
			l0,0c-0.567,0.567-0.919,1.447-0.923,2.828l0,0c-0.088,4.832,4.977,14.144,13.388,22.475l0,0l-1.06,1.062l-1.062,1.06
			c-8.693-8.773-14.18-18.085-14.269-24.597l0,0c-0.004-1.887,0.522-3.669,1.803-4.949l0,0c1.279-1.285,3.066-1.811,4.951-1.805l0,0
			c6.512,0.086,15.826,5.575,24.597,14.268l0,0c8.693,8.771,14.182,18.085,14.268,24.597l0,0c0.006,1.885-0.52,3.672-1.803,4.953
			l0,0c-1.274,1.272-3.043,1.801-4.918,1.801l0,0C206.203,213.056,206.192,213.056,206.181,213.056L206.181,213.056z"/>
	</g>
	<g>
		<polygon fill="#FCC781" points="168.97,170.006 170.395,168.6 210.784,209.489 209.36,210.896 168.97,170.006 		"/>
	</g>
	<g>
		<polygon fill="#FCC781" points="194.76,207.819 196.668,196.678 207.707,194.878 208.028,196.852 198.398,198.421 
			196.731,208.159 194.76,207.819 		"/>
	</g>
	<g>
		<polygon fill="#FCC781" points="185.099,200.954 188.506,188.494 200.841,185.218 200.841,185.22 201.354,187.151 
			190.131,190.131 187.028,201.481 185.099,200.954 		"/>
	</g>
	<g>
		<polygon fill="#FCC781" points="177.718,192.046 180.312,180.312 191.932,177.84 192.348,179.796 181.986,182 179.671,192.479 
			177.718,192.046 		"/>
	</g>
</g>
<g>
	<g>
		<path fill="#FCC781" d="M234.499,250c0.002-8.563,6.939-15.5,15.501-15.501l0,0c8.56,0.002,15.497,6.939,15.499,15.501l0,0
			c-0.002,8.56-6.938,15.497-15.499,15.499l0,0C241.438,265.497,234.501,258.561,234.499,250L234.499,250z M239.5,250
			c0.01,5.797,4.702,10.488,10.5,10.5l0,0c5.797-0.012,10.488-4.702,10.5-10.5l0,0c-0.012-5.798-4.702-10.49-10.5-10.5l0,0
			C244.202,239.51,239.51,244.202,239.5,250L239.5,250z"/>
	</g>
	<g>
		<path fill="#FCC781" d="M258.779,219.807c0-10.065-8.779-14.253-8.779-14.253s-8.779,4.188-8.779,14.253S250,238.03,250,238.03
			S258.779,229.872,258.779,219.807z"/>
	</g>
	<g>
		<path fill="#FCC781" d="M241.221,280.777c0,10.065,8.779,14.253,8.779,14.253s8.779-4.188,8.779-14.253S250,262.554,250,262.554
			S241.221,270.712,241.221,280.777z"/>
	</g>
	<g>
		<path fill="#FCC781" d="M280.485,259.071c10.065,0,14.253-8.779,14.253-8.779s-4.188-8.779-14.253-8.779
			s-18.224,8.779-18.224,8.779S270.42,259.071,280.485,259.071z"/>
	</g>
	<g>
		<path fill="#FCC781" d="M219.515,241.513c-10.065,0-14.253,8.779-14.253,8.779s4.188,8.779,14.253,8.779
			s18.224-8.779,18.224-8.779S229.58,241.513,219.515,241.513z"/>
	</g>
	<g>
		<path fill="#FCC781" d="M234.651,222.527c-7.117-7.117-16.286-3.87-16.286-3.87s-3.247,9.169,3.87,16.286
			c7.118,7.117,19.095,6.679,19.095,6.679S241.769,229.646,234.651,222.527z"/>
	</g>
	<g>
		<path fill="#FCC781" d="M265.349,278.057c7.117,7.117,16.286,3.87,16.286,3.87s3.247-9.169-3.87-16.286
			c-7.118-7.117-19.095-6.679-19.095-6.679S258.231,270.939,265.349,278.057z"/>
	</g>
	<g>
		<path fill="#FCC781" d="M277.765,234.943c7.117-7.117,3.87-16.286,3.87-16.286s-9.169-3.247-16.286,3.87
			c-7.117,7.118-6.679,19.095-6.679,19.095S270.646,242.061,277.765,234.943z"/>
	</g>
	<g>
		<path fill="#FCC781" d="M222.235,265.641c-7.117,7.117-3.87,16.286-3.87,16.286s9.169,3.247,16.286-3.87
			s6.679-19.095,6.679-19.095S229.354,258.523,222.235,265.641z"/>
	</g>
</g>
<g>
	<path fill="#FCC781" d="M132.962,250C132.964,185.36,185.36,132.964,250,132.962l0,0C314.639,132.964,367.036,185.36,367.038,250
		l0,0C367.036,314.639,314.639,367.036,250,367.038l0,0C185.36,367.036,132.964,314.639,132.962,250L132.962,250z M170.776,170.776
		c-20.278,20.283-32.814,48.276-32.814,79.224l0,0c0,30.946,12.536,58.939,32.814,79.221l0,0
		c20.283,20.278,48.276,32.814,79.224,32.814l0,0c30.946,0,58.939-12.536,79.221-32.814l0,0
		c20.278-20.282,32.814-48.275,32.814-79.221l0,0c0-30.948-12.536-58.941-32.814-79.224l0,0
		c-20.282-20.278-48.275-32.814-79.221-32.814l0,0C219.052,137.962,191.059,150.498,170.776,170.776L170.776,170.776z"/>
</g>
<g>
	<g>
		<path fill="#FCC781" d="M233.59,150.962c-0.144-0.449-0.216-0.673-0.359-1.123c-0.14-0.438,0.453-0.882,1.794-1.256
			c9.726-2.701,20.023-2.732,29.767-0.102c1.1,0.299,1.793,0.574,2.085,0.774c0.29,0.2,0.352,0.548,0.191,1.042
			c-0.243,0.748-0.502,1.177-0.771,1.293c-0.271,0.117-0.775,0.077-1.518-0.088c-2.417-0.536-3.761-0.167-3.971,0.818
			c-2.232,10.46-3.349,15.688-5.581,26.148c-0.117,0.551,0.191,1.065,0.869,1.582c0.436,0.332,0.673,0.6,0.723,0.786
			c0.051,0.187,0.008,0.47-0.113,0.852c-0.105,0.331-0.156,0.496-0.262,0.827c-0.144,0.452-0.266,0.693-0.371,0.723
			c-0.104,0.03-0.338-0.013-0.704-0.112c-4.281-1.163-6.623-1.144-10.886,0.093c-0.407,0.118-0.661,0.031-0.761-0.279
			c-0.33-1.016-0.492-1.648-0.483-1.9c0.01-0.251,0.243-0.53,0.708-0.79c0.836-0.467,1.233-0.963,1.105-1.573
			c-2.181-10.333-3.271-15.5-5.452-25.834c-0.129-0.609-0.416-1.034-0.865-1.259c-0.451-0.226-1.367-0.288-2.726-0.136
			c-0.998,0.112-1.634,0.157-1.881,0.103C233.879,151.497,233.699,151.3,233.59,150.962z"/>
	</g>
</g>
<g>
	<g>
		<path fill="#FCC781" d="M266.596,349.961c0.144,0.449,0.215,0.675,0.358,1.124c0.14,0.438-0.453,0.883-1.794,1.257
			c-9.726,2.701-20.023,2.732-29.768,0.102c-1.099-0.299-1.791-0.574-2.083-0.774c-0.29-0.199-0.354-0.547-0.194-1.041
			c0.243-0.747,0.502-1.18,0.771-1.296c0.271-0.116,0.777-0.076,1.519,0.089c2.417,0.536,3.759,0.168,3.97-0.817
			c2.232-10.46,3.348-15.69,5.581-26.15c0.118-0.551-0.192-1.063-0.869-1.578c-0.436-0.332-0.671-0.601-0.721-0.787
			c-0.051-0.187-0.014-0.47,0.107-0.852c0.105-0.331,0.159-0.499,0.264-0.83c0.144-0.452,0.267-0.688,0.373-0.718
			c0.105-0.03,0.339,0.011,0.705,0.11c4.28,1.163,6.621,1.143,10.887-0.094c0.408-0.118,0.662-0.031,0.763,0.279
			c0.33,1.016,0.488,1.648,0.479,1.9c-0.01,0.251-0.24,0.53-0.706,0.791c-0.836,0.467-1.233,0.966-1.104,1.575
			c2.182,10.333,3.271,15.5,5.452,25.833c0.129,0.609,0.414,1.033,0.863,1.259c0.45,0.226,1.364,0.285,2.724,0.133
			c0.998-0.112,1.637-0.152,1.885-0.099C266.307,349.431,266.487,349.622,266.596,349.961z"/>
	</g>
</g>
<g>
	<g>
		<path fill="#FCC781" d="M349.59,233.96c0.449-0.144,0.675-0.214,1.124-0.358c0.438-0.14,0.883,0.453,1.257,1.793
			c2.701,9.726,2.732,20.022,0.102,29.767c-0.299,1.1-0.574,1.792-0.774,2.084c-0.199,0.29-0.548,0.353-1.042,0.192
			c-0.748-0.243-1.179-0.5-1.295-0.769c-0.116-0.271-0.074-0.779,0.091-1.521c0.536-2.417,0.166-3.759-0.819-3.969
			c-10.46-2.232-15.69-3.349-26.15-5.581c-0.551-0.117-1.063,0.191-1.579,0.869c-0.332,0.436-0.6,0.671-0.786,0.721
			c-0.187,0.051-0.469,0.012-0.851-0.109c-0.331-0.105-0.498-0.155-0.829-0.261c-0.452-0.144-0.69-0.27-0.72-0.375
			c-0.03-0.104,0.011-0.335,0.11-0.701c1.163-4.281,1.143-6.625-0.094-10.888c-0.118-0.407-0.031-0.661,0.279-0.761
			c1.016-0.33,1.649-0.492,1.901-0.483c0.251,0.01,0.529,0.243,0.79,0.708c0.467,0.836,0.963,1.233,1.572,1.105
			c10.333-2.181,15.501-3.271,25.834-5.453c0.609-0.128,1.034-0.415,1.26-0.864c0.226-0.451,0.286-1.366,0.134-2.725
			c-0.112-0.998-0.152-1.634-0.099-1.881C349.06,234.25,349.251,234.068,349.59,233.96z"/>
	</g>
</g>
<g>
	<g>
		<path fill="#FCC781" d="M150.591,266.966c-0.449,0.144-0.673,0.214-1.122,0.357c-0.438,0.14-0.882-0.454-1.257-1.795
			c-2.701-9.726-2.736-20.022-0.101-29.766c0.299-1.099,0.572-1.792,0.773-2.084c0.2-0.29,0.549-0.354,1.043-0.193
			c0.748,0.243,1.178,0.502,1.294,0.771c0.117,0.271,0.076,0.778-0.088,1.52c-0.536,2.417-0.167,3.758,0.818,3.969
			c10.459,2.232,15.69,3.349,26.149,5.581c0.551,0.118,1.064-0.192,1.58-0.87c0.332-0.436,0.6-0.67,0.786-0.72
			c0.187-0.051,0.47-0.013,0.851,0.108c0.331,0.105,0.496,0.157,0.827,0.262c0.452,0.144,0.691,0.268,0.721,0.374
			c0.03,0.105-0.012,0.339-0.111,0.705c-1.163,4.28-1.144,6.622,0.093,10.888c0.118,0.408,0.031,0.659-0.279,0.76
			c-1.016,0.33-1.649,0.491-1.901,0.482c-0.251-0.01-0.529-0.241-0.789-0.707c-0.467-0.836-0.965-1.236-1.574-1.107
			c-10.333,2.182-15.499,3.271-25.832,5.453c-0.609,0.129-1.034,0.416-1.259,0.865c-0.226,0.45-0.288,1.367-0.135,2.727
			c0.112,0.998,0.155,1.633,0.102,1.88C151.125,266.675,150.929,266.857,150.591,266.966z"/>
	</g>
</g>
</svg>
